<?xml version="1.0" encoding="utf-8"?>
<!-- Generator: Adobe Illustrator 22.1.0, SVG Export Plug-In . SVG Version: 6.00 Build 0)  -->
<svg version="1.1" id="Layer_1" xmlns="http://www.w3.org/2000/svg" xmlns:xlink="http://www.w3.org/1999/xlink" x="0px" y="0px"
	 viewBox="0 0 148 38" style="enable-background:new 0 0 148 38;" xml:space="preserve">
<style type="text/css">
	.st0{fill:#FFFFFF;}
</style>
<g>
	<path class="st0" d="M1.4,25.3h3.2c1.6,0,2.4-0.9,2.4-2c0-1-0.5-1.6-1.6-1.8c0.9-0.2,1.4-0.8,1.4-1.6C6.8,18.8,6,18,4.4,18h-3
		L1.4,25.3L1.4,25.3z M4.2,22.1c0.6,0,1,0.3,1,0.9s-0.4,0.9-1,0.9h-1v-1.8H4.2L4.2,22.1z M4,19.2c0.6,0,1,0.3,1,0.9S4.6,21,4,21H3.2
		v-1.7L4,19.2L4,19.2z M13.6,17.8h-1.8L9,25.3h1.8l0.5-1.5H14l0.5,1.5h1.9L13.6,17.8z M12.7,19.6l0.9,2.7h-1.8L12.7,19.6z
		 M25.7,17.8H24v5l-3.2-5h-1.9v7.4h1.7v-4.9l3.2,4.9h1.9V17.8z M33.4,25.3L31,21.5v3.8h-1.8v-7.4H31v3.6l2.3-3.6h2l-2.4,3.6l2.7,3.9
		h-2.2V25.3z M41.9,21.5c0,1.5,0.9,2.4,2,2.4s2-0.9,2-2.4s-0.9-2.4-2-2.4C42.8,19.2,41.9,20.1,41.9,21.5L41.9,21.5z M40,21.5
		c0-2.2,1.5-3.9,4-3.9s3.9,1.7,4,3.9c0,2.2-1.5,3.9-4,3.9S40,23.7,40,21.5L40,21.5z M50.4,25.3h1.8v-2.9h2.4V21h-2.4v-1.7H55
		l0.3-1.4h-5L50.4,25.3L50.4,25.3z M63.8,17.8H62l-2.8,7.4H61l0.5-1.5h2.7l0.5,1.5h1.9L63.8,17.8z M62.9,19.6l0.9,2.7H62L62.9,19.6z
		 M77.3,17.8h-2.1l-1.9,4l-1.9-4h-2.1v7.4h1.6v-5l2.4,5l2.4-5v5h1.7L77.3,17.8L77.3,17.8z M80.8,25.3h5.1v-1.4h-3.3v-1.7h2.6v-1.4
		h-2.6v-1.5h3l0.3-1.4h-5.1V25.3z M92.7,25.3h2l-1.8-3.1c1-0.3,1.5-1,1.5-2c0-1.3-0.8-2.2-2.6-2.2h-2.9v7.4h1.8v-2.9h0.5L92.7,25.3z
		 M91.4,19.2c0.8,0,1.1,0.3,1.1,1c0,0.6-0.4,1-1.1,1h-0.8v-1.9L91.4,19.2L91.4,19.2z M97.4,25.3h1.8v-0.6v-6.8h-1.8V25.3z
		 M108.1,23.3c-0.7,0.5-1.3,0.6-1.9,0.6c-1.4,0-2.4-1-2.4-2.4s1-2.4,2.3-2.4c0.6,0,1.2,0.2,1.9,0.6V18c-0.6-0.3-1.3-0.5-2.1-0.5
		c-2.5,0-4,1.7-4,3.9s1.5,3.9,4,3.9c0.8,0,1.5-0.1,2.2-0.5V23.3L108.1,23.3z M114.7,17.8h-1.8l-2.8,7.4h1.8l0.5-1.5h2.7l0.5,1.5h1.9
		L114.7,17.8z M113.8,19.6l0.9,2.7h-1.8L113.8,19.6z"/>
	<g>
		<g>
			<path class="st0" d="M136.2,25.7c0-0.3,0.3-0.6,0.6-0.6s0.6,0.3,0.6,0.6s-0.3,0.6-0.6,0.6C136.4,26.3,136.2,26,136.2,25.7
				 M136.3,25.7c0,0.3,0.2,0.5,0.5,0.5s0.5-0.2,0.5-0.5s-0.2-0.5-0.5-0.5S136.3,25.5,136.3,25.7"/>
			<path class="st0" d="M137.1,26H137l-0.2-0.3h-0.1V26h-0.1v-0.7h0.3c0.1,0,0.1,0,0.2,0c0.1,0,0.1,0.1,0.1,0.1
				c0,0.1-0.1,0.2-0.2,0.2L137.1,26z M136.8,25.7c0.1,0,0.2,0,0.2-0.1s-0.1-0.1-0.2-0.1h-0.2v0.2H136.8z"/>
		</g>
		<g>
			<path class="st0" d="M133.9,26.3c4.3-3.7,10.2-7.2,13.5-8.5c-0.5-0.3-1.3-0.8-2.2-1.3c-4.2,1.4-9.2,4.5-13.6,8
				C132.4,25.1,133.1,25.7,133.9,26.3z"/>
			<path class="st0" d="M131.9,16.4c-0.6-0.3-1.3-0.6-1.8-0.8c-1.6,0.8-3.7,2-6.3,3.9c0.6,0.3,1.2,0.7,1.8,1
				C127.6,19,129.7,17.6,131.9,16.4z"/>
			<path class="st0" d="M135.7,14.7c-0.8-0.4-3.4-1.4-5.3-1.8c-0.5,0.2-1.3,0.5-1.8,0.7c0.7,0.2,3.2,0.9,5.3,1.9
				C134.4,15.2,135.2,14.9,135.7,14.7z"/>
			<path class="st0" d="M126.7,14.4c-2.4,1.1-4.9,2.6-6.2,3.5c0.5,0.2,1,0.4,1.6,0.7c3-2,5.4-3.3,6.3-3.7
				C127.7,14.7,127.1,14.5,126.7,14.4z"/>
			<path class="st0" d="M137.5,14c0.5-0.2,1.2-0.3,1.7-0.5c-1.6-0.7-3.6-1.4-5.4-1.8c-0.3,0.1-1.1,0.3-1.7,0.5
				C132.8,12.4,134.8,12.8,137.5,14z"/>
			<path class="st0" d="M127.5,21.6c0.6,0.4,1.3,0.9,2,1.4c4.4-3.4,8.8-6.1,13.6-7.6c-0.7-0.3-1.3-0.6-2-1
				C138.3,15.1,133.3,17.1,127.5,21.6z"/>
		</g>
	</g>
</g>
</svg>
