<svg width="58" height="59" viewBox="0 0 58 59" fill="none" xmlns="http://www.w3.org/2000/svg">
<circle cx="29" cy="29.5981" r="29" fill="#DE4343"/>
<path d="M14.7433 23.9527C16.3858 22.7264 18.2985 21.9123 20.3209 21.5785C22.637 21.1643 24.9924 21.0115 27.3426 21.123C30.187 21.2174 33.0377 21.2678 35.8716 21.6751C38.1282 22.0214 40.347 22.5315 42.3811 23.6336C43.7022 24.3065 44.8463 25.2809 45.7209 26.478C46.7474 27.9243 47.098 29.5848 47.0434 31.3229C47.0043 32.0232 46.896 32.7179 46.7201 33.3969C46.6273 33.813 46.4146 34.1928 46.1083 34.4894C45.8021 34.786 45.4156 34.9863 44.9967 35.0657C43.093 35.549 41.0812 35.3668 39.2953 34.5493C39.0289 34.449 38.7943 34.279 38.616 34.0571C38.4377 33.8352 38.3221 33.5695 38.2814 33.2877C38.1765 32.5824 38.0946 31.875 37.9917 31.1675C37.8994 30.542 37.8238 29.9122 37.6832 29.2972C37.6331 29.0029 37.4916 28.7319 37.2786 28.5228C37.0657 28.3136 36.7922 28.1769 36.4971 28.1321C35.0592 27.8907 33.615 27.6052 32.1644 27.4562C29.5294 27.1761 26.8749 27.129 24.2316 27.3156C23.646 27.3596 23.0687 27.4583 22.4872 27.5486C22.2329 27.5804 21.9931 27.6846 21.7963 27.8487C21.5994 28.0128 21.4538 28.2299 21.3767 28.4743C21.1942 29.0116 21.0401 29.5582 20.9149 30.1117C20.7449 30.8821 20.5917 31.6525 20.4258 32.4103C20.3573 32.7225 20.2038 33.0096 19.9822 33.2401C19.7607 33.4705 19.4798 33.6352 19.1705 33.7159C17.3886 34.316 15.4615 34.3307 13.6707 33.7579C13.2043 33.634 12.7868 33.371 12.4737 33.0038C12.1605 32.6367 11.9667 32.1829 11.9179 31.7028C11.5547 29.018 12.0984 26.5934 14.0296 24.5782C14.2567 24.3577 14.4949 24.1489 14.7433 23.9527Z" fill="white"/>
</svg>
