<svg width="104" height="100" viewBox="0 0 104 100" fill="none" xmlns="http://www.w3.org/2000/svg">
<path d="M68.7068 31.1369C87.5784 30.8487 102.981 45.7018 103.347 64.572C103.4 67.3426 103.123 70.0392 102.553 72.6259C101.587 77.0057 101.012 81.4626 101.012 85.9477V94.6173C101.012 95.9455 99.9357 97.0223 98.6075 97.0223H89.938C85.4528 97.0223 80.9959 97.5965 76.6161 98.5627C74.0297 99.1331 71.333 99.4101 68.5625 99.3564C49.6925 98.9912 34.8393 83.5888 35.1272 64.7176C35.408 46.2977 50.2871 31.4183 68.7068 31.1369Z" fill="url(#paint0_linear)"/>
<path d="M68.7068 31.1369C87.5784 30.8487 102.981 45.7018 103.347 64.572C103.4 67.3426 103.123 70.0392 102.553 72.6259C101.587 77.0057 101.012 81.4626 101.012 85.9477V94.6173C101.012 95.9455 99.9357 97.0223 98.6075 97.0223H89.938C85.4528 97.0223 80.9959 97.5965 76.6161 98.5627C74.0297 99.1331 71.333 99.4101 68.5625 99.3564C49.6925 98.9912 34.8393 83.5888 35.1272 64.7176C35.408 46.2977 50.2871 31.4183 68.7068 31.1369Z" fill="url(#paint1_linear)"/>
<path d="M42.2089 0.00502775C19.2181 -0.346211 0.453251 17.7488 0.00794512 40.738C-0.0572561 44.1129 0.280054 47.3986 0.975264 50.5497C2.15212 55.8853 2.85177 61.3151 2.85177 66.7793V77.3411C2.85177 78.9592 4.16346 80.2711 5.78178 80.2711H16.3436C21.8075 80.2711 27.2374 80.9708 32.5732 82.1476C35.7243 82.8426 39.0098 83.1802 42.3847 83.1148C65.3735 82.6697 83.4685 63.9054 83.1181 40.915C82.7757 18.4747 64.649 0.347586 42.2089 0.00502775Z" fill="url(#paint2_linear)"/>
<path d="M26.6847 39.3337C25.5107 38.0862 23.849 37.3027 22.0003 37.3027C18.4449 37.3027 15.5628 40.1849 15.5628 43.7403C15.5628 45.5887 16.346 47.2505 17.5937 48.4247L31.4805 62.3115C32.6548 63.559 34.3165 64.3425 36.1649 64.3425C39.7203 64.3425 42.6025 61.4603 42.6025 57.9049C42.6025 56.0565 41.8191 54.3947 40.5716 53.2205L26.6847 39.3337Z" fill="url(#paint3_linear)"/>
<path d="M22.0001 50.1769C25.5555 50.1769 28.4377 47.2947 28.4377 43.7393C28.4377 40.184 25.5555 37.3018 22.0001 37.3018C18.4448 37.3018 15.5626 40.184 15.5626 43.7393C15.5626 47.2947 18.4448 50.1769 22.0001 50.1769Z" fill="white"/>
<path d="M44.8906 39.3337C43.7166 38.0862 42.0548 37.3027 40.2062 37.3027C36.6508 37.3027 33.7686 40.1849 33.7686 43.7403C33.7686 45.5887 34.5519 47.2505 35.7996 48.4247L49.6864 62.3115C50.8606 63.559 52.5224 64.3425 54.3708 64.3425C57.9262 64.3425 60.8084 61.4603 60.8084 57.9049C60.8084 56.0565 60.0249 54.3947 58.7774 53.2205L44.8906 39.3337Z" fill="url(#paint4_linear)"/>
<path d="M40.2064 50.1769C43.7618 50.1769 46.644 47.2947 46.644 43.7393C46.644 40.184 43.7618 37.3018 40.2064 37.3018C36.651 37.3018 33.7688 40.184 33.7688 43.7393C33.7688 47.2947 36.651 50.1769 40.2064 50.1769Z" fill="white"/>
<path d="M63.0963 39.3337C61.9222 38.0862 60.2605 37.3027 58.4119 37.3027C54.8565 37.3027 51.9743 40.1849 51.9743 43.7403C51.9743 45.5887 52.7577 47.2505 54.0052 48.4247L67.8921 62.3115C69.0663 63.559 70.728 64.3425 72.5765 64.3425C76.1319 64.3425 79.014 61.4603 79.014 57.9049C79.014 56.0565 78.2306 54.3947 76.9831 53.2205L63.0963 39.3337Z" fill="url(#paint5_linear)"/>
<path d="M58.4129 50.1769C61.9682 50.1769 64.8504 47.2947 64.8504 43.7393C64.8504 40.184 61.9682 37.3018 58.4129 37.3018C54.8575 37.3018 51.9753 40.184 51.9753 43.7393C51.9753 47.2947 54.8575 50.1769 58.4129 50.1769Z" fill="white"/>
<defs>
<linearGradient id="paint0_linear" x1="62.3515" y1="58.3635" x2="112.438" y2="108.45" gradientUnits="userSpaceOnUse">
<stop stop-color="#A7F3CE"/>
<stop offset="1" stop-color="#61DB99"/>
</linearGradient>
<linearGradient id="paint1_linear" x1="78.7473" y1="74.7583" x2="57.4732" y2="53.4863" gradientUnits="userSpaceOnUse">
<stop stop-color="#F2395B"/>
<stop offset="1" stop-color="#FEB6C3"/>
</linearGradient>
<linearGradient id="paint2_linear" x1="26.3771" y1="34.8422" x2="79.2582" y2="87.7234" gradientUnits="userSpaceOnUse">
<stop stop-color="#62E1FB"/>
<stop offset="1" stop-color="#00A2F3"/>
</linearGradient>
<linearGradient id="paint3_linear" x1="36.3207" y1="58.062" x2="8.47805" y2="30.2201" gradientUnits="userSpaceOnUse">
<stop stop-color="#00A2F3" stop-opacity="0"/>
<stop offset="1" stop-color="#0075CD"/>
</linearGradient>
<linearGradient id="paint4_linear" x1="54.5254" y1="58.0613" x2="26.6835" y2="30.2194" gradientUnits="userSpaceOnUse">
<stop stop-color="#00A2F3" stop-opacity="0"/>
<stop offset="1" stop-color="#0075CD"/>
</linearGradient>
<linearGradient id="paint5_linear" x1="72.731" y1="58.0616" x2="44.8891" y2="30.2198" gradientUnits="userSpaceOnUse">
<stop stop-color="#00A2F3" stop-opacity="0"/>
<stop offset="1" stop-color="#0075CD"/>
</linearGradient>
</defs>
</svg>
