<svg width="212" height="32" viewBox="0 0 212 32" fill="none" xmlns="http://www.w3.org/2000/svg">
<rect opacity="0.5" width="212" height="32" rx="16" fill="black"/>
<path d="M52.75 16.7422H47.8203V20.7734H53.5469V22H46.3203V10.625H53.4688V11.8594H47.8203V15.5156H52.75V16.7422ZM56.5547 13.5469L56.6016 14.6094C57.2474 13.7969 58.0911 13.3906 59.1328 13.3906C60.9193 13.3906 61.8203 14.3984 61.8359 16.4141V22H60.3906V16.4062C60.3854 15.7969 60.2448 15.3464 59.9688 15.0547C59.6979 14.763 59.2734 14.6172 58.6953 14.6172C58.2266 14.6172 57.8151 14.7422 57.4609 14.9922C57.1068 15.2422 56.8307 15.5703 56.6328 15.9766V22H55.1875V13.5469H56.5547ZM63.6641 17.7031C63.6641 16.4062 63.9714 15.3646 64.5859 14.5781C65.2005 13.7865 66.0052 13.3906 67 13.3906C67.9896 13.3906 68.7734 13.7292 69.3516 14.4062V10H70.7969V22H69.4688L69.3984 21.0938C68.8203 21.8021 68.0156 22.1562 66.9844 22.1562C66.0052 22.1562 65.2057 21.7552 64.5859 20.9531C63.9714 20.151 63.6641 19.1042 63.6641 17.8125V17.7031ZM65.1094 17.8672C65.1094 18.8255 65.3073 19.5755 65.7031 20.1172C66.099 20.6589 66.6458 20.9297 67.3438 20.9297C68.2604 20.9297 68.9297 20.5182 69.3516 19.6953V15.8125C68.9193 15.0156 68.2552 14.6172 67.3594 14.6172C66.651 14.6172 66.099 14.8906 65.7031 15.4375C65.3073 15.9844 65.1094 16.7943 65.1094 17.8672ZM76.0547 17.7578H72.2422V16.5781H76.0547V17.7578ZM84.7734 22H77.3203V20.9609L81.2578 16.5859C81.8411 15.9245 82.2422 15.388 82.4609 14.9766C82.6849 14.5599 82.7969 14.1302 82.7969 13.6875C82.7969 13.0938 82.6172 12.6068 82.2578 12.2266C81.8984 11.8464 81.4193 11.6562 80.8203 11.6562C80.1016 11.6562 79.5417 11.862 79.1406 12.2734C78.7448 12.6797 78.5469 13.2474 78.5469 13.9766H77.1016C77.1016 12.9297 77.4375 12.0833 78.1094 11.4375C78.7865 10.7917 79.6901 10.4688 80.8203 10.4688C81.8776 10.4688 82.7135 10.7474 83.3281 11.3047C83.9427 11.8568 84.25 12.5938 84.25 13.5156C84.25 14.6354 83.5365 15.9688 82.1094 17.5156L79.0625 20.8203H84.7734V22ZM89.4609 17.7578H85.6484V16.5781H89.4609V17.7578ZM94.3828 22.1562C93.237 22.1562 92.3047 21.7812 91.5859 21.0312C90.8672 20.276 90.5078 19.2682 90.5078 18.0078V17.7422C90.5078 16.9036 90.6667 16.1562 90.9844 15.5C91.3073 14.8385 91.7552 14.3229 92.3281 13.9531C92.9062 13.5781 93.5312 13.3906 94.2031 13.3906C95.3021 13.3906 96.1562 13.7526 96.7656 14.4766C97.375 15.2005 97.6797 16.237 97.6797 17.5859V18.1875H91.9531C91.974 19.0208 92.2161 19.6953 92.6797 20.2109C93.1484 20.7214 93.7422 20.9766 94.4609 20.9766C94.9714 20.9766 95.4036 20.8724 95.7578 20.6641C96.112 20.4557 96.4219 20.1797 96.6875 19.8359L97.5703 20.5234C96.862 21.612 95.7995 22.1562 94.3828 22.1562ZM94.2031 14.5781C93.6198 14.5781 93.1302 14.7917 92.7344 15.2188C92.3385 15.6406 92.0938 16.2344 92 17H96.2344V16.8906C96.1927 16.1562 95.9948 15.5885 95.6406 15.1875C95.2865 14.7812 94.8073 14.5781 94.2031 14.5781ZM100.727 13.5469L100.773 14.6094C101.419 13.7969 102.263 13.3906 103.305 13.3906C105.091 13.3906 105.992 14.3984 106.008 16.4141V22H104.562V16.4062C104.557 15.7969 104.417 15.3464 104.141 15.0547C103.87 14.763 103.445 14.6172 102.867 14.6172C102.398 14.6172 101.987 14.7422 101.633 14.9922C101.279 15.2422 101.003 15.5703 100.805 15.9766V22H99.3594V13.5469H100.727ZM107.836 17.7031C107.836 16.4062 108.143 15.3646 108.758 14.5781C109.372 13.7865 110.177 13.3906 111.172 13.3906C112.161 13.3906 112.945 13.7292 113.523 14.4062V10H114.969V22H113.641L113.57 21.0938C112.992 21.8021 112.188 22.1562 111.156 22.1562C110.177 22.1562 109.378 21.7552 108.758 20.9531C108.143 20.151 107.836 19.1042 107.836 17.8125V17.7031ZM109.281 17.8672C109.281 18.8255 109.479 19.5755 109.875 20.1172C110.271 20.6589 110.818 20.9297 111.516 20.9297C112.432 20.9297 113.102 20.5182 113.523 19.6953V15.8125C113.091 15.0156 112.427 14.6172 111.531 14.6172C110.823 14.6172 110.271 14.8906 109.875 15.4375C109.479 15.9844 109.281 16.7943 109.281 17.8672ZM124.695 22.1562C123.549 22.1562 122.617 21.7812 121.898 21.0312C121.18 20.276 120.82 19.2682 120.82 18.0078V17.7422C120.82 16.9036 120.979 16.1562 121.297 15.5C121.62 14.8385 122.068 14.3229 122.641 13.9531C123.219 13.5781 123.844 13.3906 124.516 13.3906C125.615 13.3906 126.469 13.7526 127.078 14.4766C127.688 15.2005 127.992 16.237 127.992 17.5859V18.1875H122.266C122.286 19.0208 122.529 19.6953 122.992 20.2109C123.461 20.7214 124.055 20.9766 124.773 20.9766C125.284 20.9766 125.716 20.8724 126.07 20.6641C126.424 20.4557 126.734 20.1797 127 19.8359L127.883 20.5234C127.174 21.612 126.112 22.1562 124.695 22.1562ZM124.516 14.5781C123.932 14.5781 123.443 14.7917 123.047 15.2188C122.651 15.6406 122.406 16.2344 122.312 17H126.547V16.8906C126.505 16.1562 126.307 15.5885 125.953 15.1875C125.599 14.7812 125.12 14.5781 124.516 14.5781ZM131.039 13.5469L131.086 14.6094C131.732 13.7969 132.576 13.3906 133.617 13.3906C135.404 13.3906 136.305 14.3984 136.32 16.4141V22H134.875V16.4062C134.87 15.7969 134.729 15.3464 134.453 15.0547C134.182 14.763 133.758 14.6172 133.18 14.6172C132.711 14.6172 132.299 14.7422 131.945 14.9922C131.591 15.2422 131.315 15.5703 131.117 15.9766V22H129.672V13.5469H131.039ZM141.891 20.9766C142.406 20.9766 142.857 20.8203 143.242 20.5078C143.628 20.1953 143.841 19.8047 143.883 19.3359H145.25C145.224 19.8203 145.057 20.2812 144.75 20.7188C144.443 21.1562 144.031 21.5052 143.516 21.7656C143.005 22.026 142.464 22.1562 141.891 22.1562C140.74 22.1562 139.823 21.7734 139.141 21.0078C138.464 20.237 138.125 19.1849 138.125 17.8516V17.6094C138.125 16.7865 138.276 16.0547 138.578 15.4141C138.88 14.7734 139.312 14.276 139.875 13.9219C140.443 13.5677 141.112 13.3906 141.883 13.3906C142.831 13.3906 143.617 13.6745 144.242 14.2422C144.872 14.8099 145.208 15.5469 145.25 16.4531H143.883C143.841 15.9062 143.633 15.4583 143.258 15.1094C142.888 14.7552 142.43 14.5781 141.883 14.5781C141.148 14.5781 140.578 14.8438 140.172 15.375C139.771 15.901 139.57 16.6641 139.57 17.6641V17.9375C139.57 18.9115 139.771 19.6615 140.172 20.1875C140.573 20.7135 141.146 20.9766 141.891 20.9766ZM150.961 14.8438C150.742 14.8073 150.505 14.7891 150.25 14.7891C149.302 14.7891 148.659 15.1927 148.32 16V22H146.875V13.5469H148.281L148.305 14.5234C148.779 13.7682 149.451 13.3906 150.32 13.3906C150.602 13.3906 150.815 13.4271 150.961 13.5V14.8438ZM155.203 19.8828L157.172 13.5469H158.719L155.32 23.3047C154.794 24.7109 153.958 25.4141 152.812 25.4141L152.539 25.3906L152 25.2891V24.1172L152.391 24.1484C152.88 24.1484 153.26 24.0495 153.531 23.8516C153.807 23.6536 154.034 23.2917 154.211 22.7656L154.531 21.9062L151.516 13.5469H153.094L155.203 19.8828ZM167.156 17.8672C167.156 19.1536 166.862 20.1901 166.273 20.9766C165.685 21.763 164.888 22.1562 163.883 22.1562C162.857 22.1562 162.049 21.8307 161.461 21.1797V25.25H160.016V13.5469H161.336L161.406 14.4844C161.995 13.7552 162.812 13.3906 163.859 13.3906C164.875 13.3906 165.677 13.7734 166.266 14.5391C166.859 15.3047 167.156 16.3698 167.156 17.7344V17.8672ZM165.711 17.7031C165.711 16.75 165.508 15.9974 165.102 15.4453C164.695 14.8932 164.138 14.6172 163.43 14.6172C162.555 14.6172 161.898 15.0052 161.461 15.7812V19.8203C161.893 20.5911 162.555 20.9766 163.445 20.9766C164.138 20.9766 164.688 20.7031 165.094 20.1562C165.505 19.6042 165.711 18.7865 165.711 17.7031ZM170.961 11.5V13.5469H172.539V14.6641H170.961V19.9062C170.961 20.2448 171.031 20.5 171.172 20.6719C171.312 20.8385 171.552 20.9219 171.891 20.9219C172.057 20.9219 172.286 20.8906 172.578 20.8281V22C172.198 22.1042 171.828 22.1562 171.469 22.1562C170.823 22.1562 170.336 21.9609 170.008 21.5703C169.68 21.1797 169.516 20.625 169.516 19.9062V14.6641H167.977V13.5469H169.516V11.5H170.961ZM177.742 22.1562C176.596 22.1562 175.664 21.7812 174.945 21.0312C174.227 20.276 173.867 19.2682 173.867 18.0078V17.7422C173.867 16.9036 174.026 16.1562 174.344 15.5C174.667 14.8385 175.115 14.3229 175.688 13.9531C176.266 13.5781 176.891 13.3906 177.562 13.3906C178.661 13.3906 179.516 13.7526 180.125 14.4766C180.734 15.2005 181.039 16.237 181.039 17.5859V18.1875H175.312C175.333 19.0208 175.576 19.6953 176.039 20.2109C176.508 20.7214 177.102 20.9766 177.82 20.9766C178.331 20.9766 178.763 20.8724 179.117 20.6641C179.471 20.4557 179.781 20.1797 180.047 19.8359L180.93 20.5234C180.221 21.612 179.159 22.1562 177.742 22.1562ZM177.562 14.5781C176.979 14.5781 176.49 14.7917 176.094 15.2188C175.698 15.6406 175.453 16.2344 175.359 17H179.594V16.8906C179.552 16.1562 179.354 15.5885 179 15.1875C178.646 14.7812 178.167 14.5781 177.562 14.5781ZM182.367 17.7031C182.367 16.4062 182.674 15.3646 183.289 14.5781C183.904 13.7865 184.708 13.3906 185.703 13.3906C186.693 13.3906 187.477 13.7292 188.055 14.4062V10H189.5V22H188.172L188.102 21.0938C187.523 21.8021 186.719 22.1562 185.688 22.1562C184.708 22.1562 183.909 21.7552 183.289 20.9531C182.674 20.151 182.367 19.1042 182.367 17.8125V17.7031ZM183.812 17.8672C183.812 18.8255 184.01 19.5755 184.406 20.1172C184.802 20.6589 185.349 20.9297 186.047 20.9297C186.964 20.9297 187.633 20.5182 188.055 19.6953V15.8125C187.622 15.0156 186.958 14.6172 186.062 14.6172C185.354 14.6172 184.802 14.8906 184.406 15.4375C184.01 15.9844 183.812 16.7943 183.812 17.8672Z" fill="white"/>
<path d="M36.625 13.5H36V11C36 8.24243 33.7576 6 31 6C28.2424 6 26 8.24243 26 11V13.5H25.375C24.3417 13.5 23.5 14.3408 23.5 15.375V24.125C23.5 25.1592 24.3417 26 25.375 26H36.625C37.6583 26 38.5 25.1592 38.5 24.125V15.375C38.5 14.3408 37.6583 13.5 36.625 13.5ZM27.6667 11C27.6667 9.16162 29.1616 7.66672 31 7.66672C32.8384 7.66672 34.3333 9.16162 34.3333 11V13.5H27.6667V11Z" fill="white"/>
</svg>
