<svg width="177" height="199" viewBox="0 0 177 199" fill="none" xmlns="http://www.w3.org/2000/svg">
<path d="M1.67021 84.7901C1.71021 84.7001 1.74021 84.6101 1.78021 84.5201C1.81021 84.4601 1.83021 84.3901 1.86021 84.3301C1.89021 84.2601 1.92021 84.2001 1.95021 84.1301C2.96021 81.7301 4.53021 79.7101 6.47021 78.5801L7.02021 78.2601L73.7402 39.7301L140.46 1.20013L141.01 0.880129C142.95 -0.239871 144.9 -0.249871 146.53 0.630129C146.58 0.650129 146.62 0.680129 146.66 0.700129C146.7 0.730129 146.75 0.750129 146.79 0.770129L155.6 5.85013L150.52 8.00013L168.14 101.42C168.59 103.83 168.19 106.49 167.18 108.88C167.15 108.95 167.12 109.01 167.1 109.08C167.07 109.14 167.05 109.21 167.02 109.27C166.01 111.67 164.44 113.7 162.5 114.82L29.4302 191.68L30.6602 197.54L22.3202 192.71C22.2802 192.69 22.2302 192.66 22.1902 192.64C20.5602 191.77 19.3402 190.05 18.8802 187.64L0.830207 91.9801C0.390207 89.6601 0.740207 87.1101 1.67021 84.7901Z" fill="#B9EAFF"/>
<path d="M36.6102 197.54L171.15 119.83C175.22 117.48 177.69 111.18 176.66 105.75L158.88 11.4602C157.86 6.03022 153.73 3.54022 149.66 5.89022L15.1202 83.5902C11.0502 85.9402 8.58025 92.2402 9.61025 97.6702L27.3902 191.96C28.4202 197.39 32.5502 199.89 36.6102 197.54Z" fill="url(#paint0_linear)"/>
<path d="M15.6701 83.2702L82.3901 44.7302L103.3 155.58L37.1601 197.21C32.7901 199.74 28.4701 197.69 27.5201 192.64L9.48009 96.9902C8.53009 91.9402 11.3001 85.8002 15.6701 83.2702Z" fill="url(#paint1_linear)"/>
<path d="M149.11 6.20033L82.3901 44.7403L103.17 154.89L170.61 120.15C174.98 117.62 177.75 111.48 176.8 106.43L158.76 10.7703C157.8 5.72033 153.49 3.68033 149.11 6.20033Z" fill="url(#paint2_linear)"/>
<path d="M175.95 113.62C174.86 116.35 172.97 118.78 170.61 120.14L37.1599 197.22C34.7999 198.58 32.4599 198.6 30.6499 197.55L90.4399 87.3901L175.95 113.62Z" fill="url(#paint3_linear)"/>
<path d="M10.3301 89.8002C11.4201 87.0702 13.3101 84.6402 15.6701 83.2802L149.11 6.20024C151.47 4.84024 153.81 4.82024 155.62 5.87024L95.8401 116.03L10.3301 89.8002Z" fill="url(#paint4_linear)"/>
<defs>
<linearGradient id="paint0_linear" x1="167.777" y1="58.6008" x2="7.92561" y2="88.7541" gradientUnits="userSpaceOnUse">
<stop stop-color="#7BDAFF"/>
<stop offset="1" stop-color="#59BDEF"/>
</linearGradient>
<linearGradient id="paint1_linear" x1="3.63917" y1="270.673" x2="84.6027" y2="117.776" gradientUnits="userSpaceOnUse">
<stop offset="0.7677" stop-color="#59BDEF"/>
<stop offset="0.8452" stop-color="#55B8EB"/>
<stop offset="0.9318" stop-color="#49ABE1"/>
<stop offset="1" stop-color="#3A9BD5"/>
</linearGradient>
<linearGradient id="paint2_linear" x1="222.633" y1="144.007" x2="109.604" y2="95.9847" gradientUnits="userSpaceOnUse">
<stop offset="0.7677" stop-color="#59BDEF"/>
<stop offset="0.8452" stop-color="#55B8EB"/>
<stop offset="0.9318" stop-color="#49ABE1"/>
<stop offset="1" stop-color="#3A9BD5"/>
</linearGradient>
<linearGradient id="paint3_linear" x1="125.224" y1="271.807" x2="44.6134" y2="132.245" gradientUnits="userSpaceOnUse">
<stop offset="0.7677" stop-color="#3A9BD5"/>
<stop offset="0.8386" stop-color="#3896D2"/>
<stop offset="0.9179" stop-color="#3189C9"/>
<stop offset="1" stop-color="#2573BA"/>
</linearGradient>
<linearGradient id="paint4_linear" x1="127.732" y1="-8.03757" x2="-22.2118" y2="106.01" gradientUnits="userSpaceOnUse">
<stop stop-color="#7BDAFF"/>
<stop offset="1" stop-color="#577AF3"/>
</linearGradient>
</defs>
</svg>
