<svg width="70" height="80" viewBox="0 0 70 80" fill="none" xmlns="http://www.w3.org/2000/svg">
<g opacity="0.5">
<path opacity="0.5" d="M69.4002 34.5599C69.3902 34.5199 69.3702 34.4899 69.3602 34.4499C69.3502 34.4199 69.3402 34.3999 69.3302 34.3699C69.3202 34.3399 69.3102 34.3199 69.3002 34.2899C68.9002 33.3399 68.2802 32.5399 67.5102 32.0899L67.2902 31.9599L40.8702 16.7299L14.4602 1.46988L14.2402 1.33988C13.4702 0.899876 12.7002 0.889876 12.0602 1.23988C12.0402 1.25988 12.0202 1.26988 12.0002 1.27988C11.9802 1.28988 11.9702 1.29988 11.9502 1.30988L8.4602 3.31988L10.4702 4.16988L3.5002 41.1499C3.3202 42.0999 3.4802 43.1599 3.8802 44.0999C3.8902 44.1299 3.9002 44.1499 3.9102 44.1799C3.9202 44.1999 3.9302 44.2299 3.9402 44.2499C4.3402 45.1999 4.9602 45.9999 5.7302 46.4499L58.4102 76.8799L57.9202 79.1999L61.2202 77.2899C61.2402 77.2799 61.2502 77.2699 61.2702 77.2599C61.9102 76.9199 62.4002 76.2399 62.5802 75.2799L69.7202 37.4099C69.9102 36.4899 69.7702 35.4799 69.4002 34.5599Z" fill="white"/>
<g opacity="0.5">
<path opacity="0.5" d="M55.5699 79.1999L2.30992 48.4399C0.699921 47.5099 -0.280079 45.0099 0.129921 42.8699L7.16992 5.5299C7.56992 3.3899 9.19992 2.3999 10.8199 3.3299L64.0799 34.0899C65.6899 35.0199 66.6699 37.5199 66.2599 39.6599L59.2199 76.9899C58.8099 79.1399 57.1799 80.1299 55.5699 79.1999Z" fill="url(#paint0_linear)"/>
<path opacity="0.5" d="M63.8602 33.96L37.4402 18.71L29.1602 62.59L55.3402 79.07C57.0702 80.07 58.7802 79.26 59.1602 77.26L66.3002 39.39C66.6802 37.39 65.5902 34.96 63.8602 33.96Z" fill="url(#paint1_linear)"/>
<path opacity="0.5" d="M11.03 3.45995L37.44 18.71L29.22 62.31L2.52996 48.56C0.799964 47.56 -0.300036 45.13 0.0799644 43.13L7.21996 5.26995C7.58996 3.26995 9.29996 2.45995 11.03 3.45995Z" fill="url(#paint2_linear)"/>
<path opacity="0.5" d="M0.410156 45.9799C0.840156 47.0599 1.59016 48.0199 2.53016 48.5599L55.3502 79.0699C56.2902 79.6099 57.2102 79.6199 57.9302 79.1999L34.2602 35.5999L0.410156 45.9799Z" fill="url(#paint3_linear)"/>
<path opacity="0.5" d="M65.9702 36.5499C65.5402 35.4699 64.7902 34.5099 63.8502 33.9699L11.0302 3.45988C10.1002 2.91988 9.1702 2.90988 8.4502 3.32988L32.1202 46.9299L65.9702 36.5499Z" fill="url(#paint4_linear)"/>
</g>
</g>
<defs>
<linearGradient id="paint0_linear" x1="3.645" y1="24.1971" x2="66.9229" y2="36.1334" gradientUnits="userSpaceOnUse">
<stop stop-color="#7BDAFF"/>
<stop offset="1" stop-color="#59BDEF"/>
</linearGradient>
<linearGradient id="paint1_linear" x1="68.62" y1="108.147" x2="36.5702" y2="47.6221" gradientUnits="userSpaceOnUse">
<stop offset="0.7677" stop-color="#59BDEF"/>
<stop offset="0.8452" stop-color="#55B8EB"/>
<stop offset="0.9318" stop-color="#49ABE1"/>
<stop offset="1" stop-color="#3A9BD5"/>
</linearGradient>
<linearGradient id="paint2_linear" x1="-18.0701" y1="58.0055" x2="26.6728" y2="38.9957" gradientUnits="userSpaceOnUse">
<stop offset="0.7677" stop-color="#59BDEF"/>
<stop offset="0.8452" stop-color="#55B8EB"/>
<stop offset="0.9318" stop-color="#49ABE1"/>
<stop offset="1" stop-color="#3A9BD5"/>
</linearGradient>
<linearGradient id="paint3_linear" x1="20.4899" y1="108.596" x2="52.3998" y2="53.3495" gradientUnits="userSpaceOnUse">
<stop offset="0.7677" stop-color="#3A9BD5"/>
<stop offset="0.8386" stop-color="#3896D2"/>
<stop offset="0.9179" stop-color="#3189C9"/>
<stop offset="1" stop-color="#2573BA"/>
</linearGradient>
<linearGradient id="paint4_linear" x1="19.4969" y1="-2.18197" x2="78.8532" y2="42.9642" gradientUnits="userSpaceOnUse">
<stop stop-color="#7BDAFF"/>
<stop offset="1" stop-color="#59BDEF"/>
</linearGradient>
</defs>
</svg>
