<svg width="106" height="106" viewBox="0 0 106 106" fill="none" xmlns="http://www.w3.org/2000/svg">
<path d="M61.5285 56.8811C60.9719 56.3016 60.3006 55.9917 59.5891 55.9917C58.8834 55.9917 58.2063 56.2958 57.6268 56.8753L55.8137 58.6827C55.6645 58.6024 55.5154 58.5278 55.3719 58.4532C55.1654 58.3499 54.9703 58.2524 54.8039 58.1491C53.1055 57.0704 51.5621 55.6647 50.0817 53.8458C49.3645 52.9393 48.8826 52.1762 48.5326 51.4016C49.0031 50.9712 49.4391 50.5237 49.8637 50.0934C50.0244 49.9327 50.185 49.7663 50.3457 49.6057C51.5506 48.4007 51.5506 46.8401 50.3457 45.6352L48.7793 44.0688C48.6014 43.8909 48.4178 43.7073 48.2457 43.5237C47.9014 43.168 47.5399 42.8007 47.167 42.4565C46.6104 41.9057 45.9449 41.613 45.2449 41.613C44.5449 41.613 43.8678 41.9057 43.294 42.4565C43.2883 42.4622 43.2883 42.4622 43.2826 42.468L41.3317 44.436C40.5973 45.1704 40.1785 46.0655 40.0867 47.104C39.949 48.7794 40.4424 50.3401 40.8211 51.3614C41.7506 53.8688 43.1391 56.1926 45.2104 58.6827C47.7235 61.6835 50.7473 64.0532 54.2014 65.7229C55.5211 66.3483 57.2826 67.0885 59.2506 67.2147C59.3711 67.2204 59.4973 67.2262 59.6121 67.2262C60.9375 67.2262 62.0506 66.7499 62.9227 65.8032C62.9285 65.7917 62.94 65.786 62.9457 65.7745C63.244 65.413 63.5883 65.086 63.9498 64.736C64.1965 64.5008 64.449 64.254 64.6957 63.9958C65.2637 63.4049 65.5621 62.7163 65.5621 62.0106C65.5621 61.2991 65.258 60.6163 64.6785 60.0426L61.5285 56.8811Z" fill="url(#paint0_linear)"/>
<path d="M54.7351 46.5073C56.2383 46.7598 57.6039 47.4712 58.6941 48.5614C59.7842 49.6516 60.49 51.0171 60.7482 52.5204C60.8113 52.8991 61.1383 53.163 61.5113 53.163C61.5572 53.163 61.5974 53.1573 61.6433 53.1516C62.0679 53.0827 62.349 52.6811 62.2801 52.2565C61.9703 50.4376 61.1097 48.7794 59.7957 47.4655C58.4818 46.1516 56.8236 45.2909 55.0047 44.9811C54.5801 44.9122 54.1842 45.1934 54.1097 45.6122C54.0351 46.0311 54.3105 46.4385 54.7351 46.5073Z" fill="url(#paint1_linear)"/>
<path d="M67.1972 52.0327C66.6865 49.0376 65.275 46.3122 63.1062 44.1433C60.9373 41.9745 58.2119 40.563 55.2168 40.0523C54.798 39.9777 54.4021 40.2646 54.3275 40.6835C54.2587 41.1081 54.5398 41.504 54.9644 41.5786C57.6382 42.0318 60.0767 43.2999 62.016 45.2335C63.9554 47.1728 65.2177 49.6114 65.671 52.2851C65.7341 52.6638 66.0611 52.9278 66.4341 52.9278C66.48 52.9278 66.5201 52.922 66.566 52.9163C66.9849 52.8532 67.2718 52.4515 67.1972 52.0327Z" fill="url(#paint2_linear)"/>
<circle opacity="0.5" cx="53" cy="52.9999" r="42.1437" stroke="#E0E0E0"/>
<circle opacity="0.2" cx="53" cy="53" r="52.5" stroke="#E0E0E0"/>
<circle opacity="0.8" cx="53" cy="53.0001" r="30.569" stroke="#E0E0E0"/>
<defs>
<linearGradient id="paint0_linear" x1="52.8126" y1="41.613" x2="52.8126" y2="67.2262" gradientUnits="userSpaceOnUse">
<stop stop-color="#F2395B"/>
<stop offset="1" stop-color="#F2395B" stop-opacity="0.53"/>
</linearGradient>
<linearGradient id="paint1_linear" x1="58.194" y1="44.9707" x2="58.194" y2="53.163" gradientUnits="userSpaceOnUse">
<stop stop-color="#F2395B"/>
<stop offset="1" stop-color="#F2395B" stop-opacity="0.53"/>
</linearGradient>
<linearGradient id="paint2_linear" x1="60.7631" y1="40.0405" x2="60.7631" y2="52.9278" gradientUnits="userSpaceOnUse">
<stop stop-color="#F2395B"/>
<stop offset="1" stop-color="#F2395B" stop-opacity="0.53"/>
</linearGradient>
</defs>
</svg>
