<svg width="81" height="110" viewBox="0 0 81 110" fill="none" xmlns="http://www.w3.org/2000/svg">
<g opacity="0.8">
<path d="M37.2052 78.1993L35.89 73.8475C34.5845 69.528 33.957 65.8823 34.009 62.9158C34.061 59.9492 35.059 56.0513 37.0046 51.2273C39.1466 45.9638 40.4897 42.0999 41.032 39.648C41.5743 37.1961 41.3625 34.372 40.3964 31.1756C39.5577 28.4003 38.2199 26.4107 36.3916 25.1984C34.5582 23.9876 32.4133 23.7214 29.9501 24.396C26.6264 25.3062 24.7386 27.1094 24.2852 29.8C23.8318 32.4907 24.2669 36.3118 25.5991 41.2553L10.8611 45.2914C8.02506 35.9074 7.97142 28.5852 10.7018 23.33C13.4255 18.0709 18.7491 14.3622 26.6592 12.1959C32.879 10.4926 38.743 11.0089 44.2512 13.7447C49.7593 16.4806 53.6077 21.46 55.791 28.6843C57.1062 33.0361 57.4506 36.7418 56.8225 39.796C56.1944 42.8502 54.9333 46.487 53.0444 50.7049C51.2024 54.8749 49.9779 58.4666 49.3761 61.4785C48.7692 64.4918 49.036 67.8855 50.1766 71.6596L51.0105 74.4186L37.2052 78.1993ZM43.5963 103.482L38.2 85.6263L40.476 82.0799L59.4835 99.131L43.5963 103.482Z" fill="#435CB5"/>
<path d="M39.6378 74.6129L38.3226 70.2611C37.0172 65.9416 36.3896 62.2959 36.4416 59.3293C36.4936 56.3628 37.4916 52.4648 39.4373 47.6409C41.5793 42.3773 42.9224 38.5135 43.4647 36.0616C44.007 33.6097 43.7951 30.7855 42.8291 27.5891C41.9903 24.8139 40.6525 22.8243 38.8243 21.612C36.9909 20.4011 34.846 20.135 32.3828 20.8096C29.059 21.7198 27.1712 23.5229 26.7178 26.2136C26.2644 28.9042 26.6995 32.7254 28.0317 37.6689L13.2937 41.705C10.4577 32.321 10.404 24.9987 13.1345 19.7436C15.8581 14.4844 21.1817 10.7757 29.0918 8.60952C35.3116 6.90617 41.1756 7.42244 46.6838 10.1583C52.192 12.8942 56.0403 17.8736 58.2236 25.0979C59.5389 29.4497 59.8832 33.1554 59.2551 36.2096C58.627 39.2638 57.366 42.9005 55.4771 47.1185C53.6351 51.2885 52.4106 54.8801 51.8088 57.892C51.2018 60.9054 51.4686 64.2991 52.6092 68.0732L53.4431 70.8322L39.6378 74.6129ZM46.0289 99.8954L40.6326 82.0399L56.5197 77.6891L61.9161 95.5446L46.0289 99.8954Z" fill="#577AF3"/>
<path d="M39.0031 74.4656L36.6306 78.1482L50.8798 74.133L53.2523 70.4504L39.0031 74.4656Z" fill="#435CB5"/>
<path d="M12.8024 42.3704L10.4296 46.056L25.6327 41.7692L28.0055 38.0836L12.8024 42.3704Z" fill="#435CB5"/>
<path d="M44.903 99.4594L61.2999 94.8324L58.9267 98.5214L42.5298 103.148L44.903 99.4594Z" fill="#435CB5"/>
</g>
</svg>
