<svg width="35" height="61" viewBox="0 0 35 61" fill="none" xmlns="http://www.w3.org/2000/svg">
<g opacity="0.4">
<path d="M10.5747 44.1987V41.2986C10.5747 38.4202 10.8806 36.0707 11.4922 34.2536C12.1039 32.4366 13.5071 30.2058 15.702 27.5648C18.1091 24.6864 19.7282 22.5347 20.5558 21.1171C21.3833 19.6995 21.7971 17.9256 21.7971 15.7956C21.7971 13.9461 21.3221 12.4961 20.3794 11.4419C19.4332 10.3877 18.1019 9.86234 16.382 9.86234C14.0612 9.86234 12.4925 10.6539 11.6757 12.2335C10.859 13.813 10.3948 16.2381 10.2905 19.5052H0C0 13.2517 1.39245 8.73615 4.17736 5.96204C6.95866 3.18433 11.1144 1.79907 16.6375 1.79907C20.9803 1.79907 24.6611 3.10517 27.6799 5.71737C30.6987 8.32956 32.2099 12.0428 32.2099 16.857C32.2099 19.757 31.7098 22.0958 30.7095 23.8696C29.7092 25.6435 28.1873 27.6692 26.1472 29.9468C24.1466 32.2027 22.657 34.2069 21.6819 35.9591C20.7033 37.7114 20.2139 39.845 20.2139 42.3601V44.1987H10.5747ZM9.76875 60.8362V48.9373L11.9276 47.1383L20.8616 60.8362H9.76875Z" fill="#435CB5"/>
<path d="M12.7339 42.3996V39.4996C12.7339 36.6211 13.0397 34.2716 13.6514 32.4546C14.2631 30.6375 15.6663 28.4067 17.8611 25.7658C20.2682 22.8873 21.8874 20.7357 22.7149 19.318C23.5425 17.9004 23.9563 16.1265 23.9563 13.9965C23.9563 12.1471 23.4813 10.6971 22.5386 9.64282C21.5923 8.58858 20.2611 8.06327 18.5412 8.06327C16.2204 8.06327 14.6517 8.85484 13.8349 10.4344C13.0181 12.0139 12.554 14.439 12.4497 17.7061H2.15918C2.15918 11.4526 3.55163 6.93707 6.33654 4.16296C9.11784 1.38526 13.2736 0 18.7966 0C23.1395 0 26.8203 1.3061 29.8391 3.91829C32.8579 6.53049 34.3691 10.2437 34.3691 15.0579C34.3691 17.958 33.8689 20.2967 32.8687 22.0705C31.8684 23.8444 30.3464 25.8701 28.3063 28.1477C26.3058 30.4037 24.8162 32.4078 23.8411 34.16C22.8625 35.9123 22.3731 38.046 22.3731 40.561V42.3996H12.7339ZM11.9279 59.0371V47.1383H23.0208V59.0371H11.9279Z" fill="#577AF3"/>
<path d="M12.7335 42.3997L10.5747 44.1987H20.2175L22.3764 42.3997H12.7335Z" fill="#435CB5"/>
<path d="M2.15884 17.7024L0 19.5014H10.2869L12.4457 17.7024H2.15884Z" fill="#435CB5"/>
<path d="M11.9274 59.0371H23.0202L20.8614 60.8361H9.76855L11.9274 59.0371Z" fill="#435CB5"/>
</g>
</svg>
