<svg width="20" height="35" viewBox="0 0 20 35" fill="none" xmlns="http://www.w3.org/2000/svg">
<g opacity="0.2">
<path d="M6.77907 25.5363V23.9249C6.77907 22.3255 6.949 21.02 7.28887 20.0104C7.62874 19.0008 8.40844 17.7612 9.62798 16.2938C10.9655 14.6944 11.8651 13.4989 12.3249 12.7112C12.7848 11.9235 13.0147 10.9379 13.0147 9.75431C13.0147 8.72671 12.7508 7.92102 12.227 7.33524C11.7012 6.74947 10.9615 6.45758 10.0058 6.45758C8.71633 6.45758 7.84466 6.89741 7.39083 7.77507C6.93701 8.65274 6.67911 10.0002 6.62113 11.8155H0.90332C0.90332 8.34086 1.67702 5.83182 3.22443 4.29041C4.76984 2.747 7.07895 1.97729 10.1478 1.97729C12.5609 1.97729 14.6061 2.70302 16.2834 4.15446C17.9608 5.6059 18.8005 7.66911 18.8005 10.3441C18.8005 11.9555 18.5226 13.255 17.9668 14.2406C17.411 15.2262 16.5653 16.3518 15.4318 17.6173C14.3202 18.8708 13.4925 19.9844 12.9507 20.958C12.4069 21.9316 12.135 23.1172 12.135 24.5147V25.5363H6.77907ZM6.33124 34.7807V28.1693L7.53078 27.1696L12.4949 34.7807H6.33124Z" fill="#435CB5"/>
<path d="M7.97878 24.5368L7.97878 22.9254C7.97878 21.326 8.14871 20.0205 8.48858 19.0109C8.82845 18.0013 9.60815 16.7617 10.8277 15.2943C12.1652 13.6949 13.0648 12.4994 13.5246 11.7117C13.9845 10.924 14.2144 9.93835 14.2144 8.7548C14.2144 7.7272 13.9505 6.9215 13.4267 6.33573C12.9009 5.74995 12.1612 5.45807 11.2055 5.45807C9.91603 5.45807 9.04437 5.8979 8.59054 6.77556C8.13671 7.65322 7.87881 9.00071 7.82084 10.816H2.10303C2.10303 7.34134 2.87673 4.83231 4.42414 3.2909C5.96955 1.74749 8.27866 0.977783 11.3475 0.977783C13.7606 0.977783 15.8058 1.70351 17.4831 3.15495C19.1605 4.60639 20.0002 6.6696 20.0002 9.34458C20.0002 10.956 19.7223 12.2555 19.1665 13.2411C18.6107 14.2267 17.765 15.3523 16.6315 16.6178C15.5199 17.8713 14.6922 18.9849 14.1504 19.9585C13.6066 20.9321 13.3347 22.1177 13.3347 23.5151V24.5368H7.97878ZM7.53095 33.7812V27.1697H13.6946V33.7812H7.53095Z" fill="#577AF3"/>
<path d="M7.97835 24.5369L6.77881 25.5365H12.1368L13.3363 24.5369H7.97835Z" fill="#435CB5"/>
<path d="M2.10286 10.814L0.90332 11.8136H6.61913L7.81867 10.814H2.10286Z" fill="#435CB5"/>
<path d="M7.5306 33.7812H13.6942L12.4947 34.7809H6.33105L7.5306 33.7812Z" fill="#435CB5"/>
</g>
</svg>
