<svg width="18" height="18" viewBox="0 0 18 18" fill="none" xmlns="http://www.w3.org/2000/svg">
<path d="M17.78 16.7196L12.6613 11.6009C13.6529 10.3761 14.2498 8.8199 14.2498 7.12493C14.2498 3.19648 11.0534 0 7.1249 0C3.19644 0 0 3.19644 0 7.1249C0 11.0534 3.19648 14.2498 7.12493 14.2498C8.8199 14.2498 10.3761 13.6529 11.6009 12.6613L16.7196 17.78C16.8658 17.9263 17.0578 17.9998 17.2498 17.9998C17.4418 17.9998 17.6338 17.9263 17.7801 17.78C18.0733 17.4868 18.0733 17.0128 17.78 16.7196ZM7.12493 12.7498C4.02296 12.7498 1.5 10.2269 1.5 7.1249C1.5 4.02292 4.02296 1.49996 7.12493 1.49996C10.2269 1.49996 12.7499 4.02292 12.7499 7.1249C12.7499 10.2269 10.2269 12.7498 7.12493 12.7498Z" fill="#577AF3"/>
</svg>
