<svg width="294" height="41" viewBox="0 0 294 41" fill="none" xmlns="http://www.w3.org/2000/svg">
<g opacity="0.9">
<rect x="14" width="266" height="41" rx="7" fill="black" fill-opacity="0.5"/>
<path d="M51.3408 12.8857L53.1401 9.17969H54.644L52.0229 14.1211V17H50.6587V14.1211L48.0322 9.17969H49.5415L51.3408 12.8857ZM54.7676 14.0405C54.7676 13.4712 54.8804 12.9591 55.106 12.5044C55.3315 12.0461 55.6484 11.6951 56.0566 11.4517C56.4648 11.2046 56.9339 11.0811 57.4639 11.0811C58.248 11.0811 58.8836 11.3335 59.3706 11.8384C59.8612 12.3433 60.1261 13.0129 60.1655 13.8472L60.1709 14.1533C60.1709 14.7262 60.0599 15.2383 59.8379 15.6895C59.6195 16.1406 59.3044 16.4897 58.8926 16.7368C58.4844 16.9839 58.0117 17.1074 57.4746 17.1074C56.6546 17.1074 55.9976 16.8353 55.5034 16.291C55.0129 15.7432 54.7676 15.0145 54.7676 14.105V14.0405ZM56.0728 14.1533C56.0728 14.7513 56.1963 15.2204 56.4434 15.5605C56.6904 15.8971 57.0342 16.0654 57.4746 16.0654C57.915 16.0654 58.257 15.8936 58.5005 15.5498C58.7476 15.2061 58.8711 14.703 58.8711 14.0405C58.8711 13.4533 58.744 12.9878 58.4897 12.644C58.2391 12.3003 57.8971 12.1284 57.4639 12.1284C57.0378 12.1284 56.6994 12.2985 56.4487 12.6387C56.1981 12.9753 56.0728 13.4801 56.0728 14.1533ZM64.7954 16.4307C64.4123 16.8818 63.868 17.1074 63.1626 17.1074C62.5324 17.1074 62.0544 16.923 61.7285 16.5542C61.4062 16.1854 61.2451 15.6519 61.2451 14.9536V11.1885H62.5503V14.9375C62.5503 15.6751 62.8564 16.0439 63.4688 16.0439C64.1025 16.0439 64.5304 15.8166 64.7524 15.3618V11.1885H66.0576V17H64.8276L64.7954 16.4307ZM70.4297 12.3809C70.2578 12.3522 70.0806 12.3379 69.8979 12.3379C69.3 12.3379 68.8971 12.5671 68.6895 13.0254V17H67.3843V11.1885H68.6304L68.6626 11.8384C68.9777 11.3335 69.4146 11.0811 69.9731 11.0811C70.1593 11.0811 70.3133 11.1061 70.4351 11.1562L70.4297 12.3809ZM76.3809 16.0654C76.7067 16.0654 76.9771 15.9705 77.1919 15.7808C77.4067 15.591 77.5213 15.3564 77.5356 15.0771H78.7656C78.7513 15.4388 78.6385 15.7772 78.4272 16.0923C78.216 16.4038 77.9295 16.6509 77.5679 16.8335C77.2062 17.0161 76.8159 17.1074 76.397 17.1074C75.5841 17.1074 74.9396 16.8442 74.4634 16.3179C73.9871 15.7915 73.749 15.0646 73.749 14.1372V14.0029C73.749 13.1185 73.9854 12.4113 74.458 11.8813C74.9307 11.3478 75.5752 11.0811 76.3916 11.0811C77.0827 11.0811 77.6449 11.2834 78.0781 11.688C78.515 12.089 78.7441 12.6172 78.7656 13.2725H77.5356C77.5213 12.9395 77.4067 12.6655 77.1919 12.4507C76.9806 12.2358 76.7103 12.1284 76.3809 12.1284C75.9583 12.1284 75.6325 12.2824 75.4033 12.5903C75.1742 12.8947 75.0578 13.3584 75.0542 13.9814V14.1909C75.0542 14.8211 75.167 15.292 75.3926 15.6035C75.6217 15.9115 75.9512 16.0654 76.3809 16.0654ZM83.2236 17C83.1663 16.889 83.1162 16.7082 83.0732 16.4575C82.6579 16.8908 82.1494 17.1074 81.5479 17.1074C80.9642 17.1074 80.488 16.9409 80.1191 16.6079C79.7503 16.2749 79.5659 15.8631 79.5659 15.3726C79.5659 14.7531 79.7951 14.2786 80.2534 13.9492C80.7153 13.6162 81.3742 13.4497 82.23 13.4497H83.0303V13.0684C83.0303 12.7676 82.9461 12.5277 82.7778 12.3486C82.6095 12.166 82.3535 12.0747 82.0098 12.0747C81.7126 12.0747 81.4691 12.1499 81.2793 12.3003C81.0895 12.4471 80.9946 12.6351 80.9946 12.8643H79.6895C79.6895 12.5456 79.7951 12.2484 80.0063 11.9727C80.2176 11.6934 80.5041 11.4749 80.8657 11.3174C81.231 11.1598 81.6374 11.0811 82.085 11.0811C82.7653 11.0811 83.3078 11.2529 83.7124 11.5967C84.117 11.9368 84.3247 12.4167 84.3354 13.0361V15.6572C84.3354 16.18 84.4089 16.5972 84.5557 16.9087V17H83.2236ZM81.7896 16.0601C82.0474 16.0601 82.2891 15.9974 82.5146 15.8721C82.7438 15.7467 82.9157 15.5785 83.0303 15.3672V14.2715H82.3267C81.8433 14.2715 81.4798 14.3556 81.2363 14.5239C80.9928 14.6922 80.8711 14.9303 80.8711 15.2383C80.8711 15.4889 80.9535 15.6895 81.1182 15.8398C81.2865 15.9867 81.5103 16.0601 81.7896 16.0601ZM87.0908 17H85.7856V8.75H87.0908V17ZM89.9053 17H88.6001V8.75H89.9053V17ZM94.5889 15.4209C94.5889 15.1882 94.4922 15.0109 94.2988 14.8892C94.109 14.7674 93.7922 14.66 93.3481 14.5669C92.9041 14.4738 92.5335 14.3556 92.2363 14.2124C91.5846 13.8973 91.2588 13.4408 91.2588 12.8428C91.2588 12.3415 91.4701 11.9225 91.8926 11.5859C92.3151 11.2493 92.8522 11.0811 93.5039 11.0811C94.1986 11.0811 94.759 11.2529 95.1851 11.5967C95.6147 11.9404 95.8296 12.3862 95.8296 12.9341H94.5244C94.5244 12.6834 94.4313 12.4757 94.2451 12.311C94.0589 12.1427 93.8118 12.0586 93.5039 12.0586C93.2174 12.0586 92.9829 12.1248 92.8003 12.2573C92.6213 12.3898 92.5317 12.5671 92.5317 12.7891C92.5317 12.9896 92.6159 13.1453 92.7842 13.2563C92.9525 13.3674 93.2926 13.4801 93.8047 13.5947C94.3167 13.7057 94.7178 13.84 95.0078 13.9976C95.3014 14.1515 95.5181 14.3377 95.6577 14.5562C95.8009 14.7746 95.8726 15.0396 95.8726 15.3511C95.8726 15.8739 95.6559 16.2982 95.2227 16.624C94.7894 16.9463 94.2218 17.1074 93.52 17.1074C93.0438 17.1074 92.6195 17.0215 92.2471 16.8496C91.8747 16.6777 91.5846 16.4414 91.377 16.1406C91.1693 15.8398 91.0654 15.5158 91.0654 15.1685H92.333C92.3509 15.4764 92.4673 15.7145 92.6821 15.8828C92.897 16.0475 93.1816 16.1299 93.5361 16.1299C93.8799 16.1299 94.1413 16.0654 94.3203 15.9365C94.4993 15.804 94.5889 15.6322 94.5889 15.4209ZM103.226 17C103.168 16.889 103.118 16.7082 103.075 16.4575C102.66 16.8908 102.151 17.1074 101.55 17.1074C100.966 17.1074 100.49 16.9409 100.121 16.6079C99.7523 16.2749 99.5679 15.8631 99.5679 15.3726C99.5679 14.7531 99.797 14.2786 100.255 13.9492C100.717 13.6162 101.376 13.4497 102.232 13.4497H103.032V13.0684C103.032 12.7676 102.948 12.5277 102.78 12.3486C102.611 12.166 102.355 12.0747 102.012 12.0747C101.715 12.0747 101.471 12.1499 101.281 12.3003C101.091 12.4471 100.997 12.6351 100.997 12.8643H99.6914C99.6914 12.5456 99.797 12.2484 100.008 11.9727C100.22 11.6934 100.506 11.4749 100.868 11.3174C101.233 11.1598 101.639 11.0811 102.087 11.0811C102.767 11.0811 103.31 11.2529 103.714 11.5967C104.119 11.9368 104.327 12.4167 104.337 13.0361V15.6572C104.337 16.18 104.411 16.5972 104.558 16.9087V17H103.226ZM101.792 16.0601C102.049 16.0601 102.291 15.9974 102.517 15.8721C102.746 15.7467 102.918 15.5785 103.032 15.3672V14.2715H102.329C101.845 14.2715 101.482 14.3556 101.238 14.5239C100.995 14.6922 100.873 14.9303 100.873 15.2383C100.873 15.4889 100.955 15.6895 101.12 15.8398C101.288 15.9867 101.512 16.0601 101.792 16.0601ZM106.916 11.1885L106.953 11.8599C107.383 11.3407 107.947 11.0811 108.645 11.0811C109.855 11.0811 110.471 11.7739 110.493 13.1597V17H109.188V13.2349C109.188 12.866 109.107 12.5939 108.946 12.4185C108.788 12.2394 108.529 12.1499 108.167 12.1499C107.641 12.1499 107.249 12.388 106.991 12.8643V17H105.686V11.1885H106.916ZM111.583 14.0513C111.583 13.1561 111.791 12.4382 112.206 11.8975C112.621 11.3532 113.178 11.0811 113.876 11.0811C114.492 11.0811 114.99 11.2959 115.37 11.7256V8.75H116.675V17H115.493L115.429 16.3984C115.038 16.8711 114.517 17.1074 113.866 17.1074C113.185 17.1074 112.634 16.8335 112.211 16.2856C111.792 15.7378 111.583 14.993 111.583 14.0513ZM112.888 14.1641C112.888 14.7549 113.001 15.2168 113.227 15.5498C113.456 15.8792 113.78 16.0439 114.199 16.0439C114.732 16.0439 115.123 15.8058 115.37 15.3296V12.8481C115.13 12.3826 114.743 12.1499 114.209 12.1499C113.787 12.1499 113.461 12.3182 113.232 12.6548C113.003 12.9878 112.888 13.4909 112.888 14.1641ZM122.003 11.1885L122.041 11.7954C122.449 11.3192 123.007 11.0811 123.716 11.0811C124.493 11.0811 125.025 11.3783 125.312 11.9727C125.734 11.3783 126.328 11.0811 127.095 11.0811C127.736 11.0811 128.212 11.2583 128.523 11.6128C128.839 11.9673 129 12.4901 129.007 13.1812V17H127.702V13.2188C127.702 12.8499 127.621 12.5796 127.46 12.4077C127.299 12.2358 127.032 12.1499 126.66 12.1499C126.362 12.1499 126.119 12.2305 125.929 12.3916C125.743 12.5492 125.612 12.7568 125.537 13.0146L125.542 17H124.237V13.1758C124.219 12.4919 123.87 12.1499 123.19 12.1499C122.667 12.1499 122.297 12.363 122.078 12.7891V17H120.773V11.1885H122.003ZM132.906 17.1074C132.079 17.1074 131.408 16.8478 130.892 16.3286C130.38 15.8058 130.124 15.1112 130.124 14.2446V14.0835C130.124 13.5034 130.235 12.986 130.457 12.5312C130.683 12.0729 130.998 11.7166 131.402 11.4624C131.807 11.2082 132.258 11.0811 132.756 11.0811C133.547 11.0811 134.158 11.3335 134.587 11.8384C135.021 12.3433 135.237 13.0576 135.237 13.9814V14.5078H131.44C131.479 14.9876 131.639 15.3672 131.918 15.6465C132.201 15.9258 132.555 16.0654 132.981 16.0654C133.579 16.0654 134.066 15.8237 134.442 15.3403L135.146 16.0117C134.913 16.359 134.602 16.6294 134.211 16.8228C133.825 17.0125 133.39 17.1074 132.906 17.1074ZM132.75 12.1284C132.392 12.1284 132.102 12.2537 131.88 12.5044C131.662 12.755 131.522 13.1042 131.461 13.5518H133.948V13.4551C133.92 13.0182 133.803 12.6888 133.599 12.4668C133.395 12.2412 133.112 12.1284 132.75 12.1284ZM139.513 15.4209C139.513 15.1882 139.416 15.0109 139.223 14.8892C139.033 14.7674 138.716 14.66 138.272 14.5669C137.828 14.4738 137.457 14.3556 137.16 14.2124C136.508 13.8973 136.183 13.4408 136.183 12.8428C136.183 12.3415 136.394 11.9225 136.816 11.5859C137.239 11.2493 137.776 11.0811 138.428 11.0811C139.122 11.0811 139.683 11.2529 140.109 11.5967C140.539 11.9404 140.753 12.3862 140.753 12.9341H139.448C139.448 12.6834 139.355 12.4757 139.169 12.311C138.983 12.1427 138.736 12.0586 138.428 12.0586C138.141 12.0586 137.907 12.1248 137.724 12.2573C137.545 12.3898 137.456 12.5671 137.456 12.7891C137.456 12.9896 137.54 13.1453 137.708 13.2563C137.876 13.3674 138.216 13.4801 138.729 13.5947C139.241 13.7057 139.642 13.84 139.932 13.9976C140.225 14.1515 140.442 14.3377 140.582 14.5562C140.725 14.7746 140.796 15.0396 140.796 15.3511C140.796 15.8739 140.58 16.2982 140.146 16.624C139.713 16.9463 139.146 17.1074 138.444 17.1074C137.968 17.1074 137.543 17.0215 137.171 16.8496C136.799 16.6777 136.508 16.4414 136.301 16.1406C136.093 15.8398 135.989 15.5158 135.989 15.1685H137.257C137.275 15.4764 137.391 15.7145 137.606 15.8828C137.821 16.0475 138.105 16.1299 138.46 16.1299C138.804 16.1299 139.065 16.0654 139.244 15.9365C139.423 15.804 139.513 15.6322 139.513 15.4209ZM145.195 15.4209C145.195 15.1882 145.099 15.0109 144.905 14.8892C144.715 14.7674 144.399 14.66 143.955 14.5669C143.511 14.4738 143.14 14.3556 142.843 14.2124C142.191 13.8973 141.865 13.4408 141.865 12.8428C141.865 12.3415 142.076 11.9225 142.499 11.5859C142.922 11.2493 143.459 11.0811 144.11 11.0811C144.805 11.0811 145.365 11.2529 145.792 11.5967C146.221 11.9404 146.436 12.3862 146.436 12.9341H145.131C145.131 12.6834 145.038 12.4757 144.852 12.311C144.665 12.1427 144.418 12.0586 144.11 12.0586C143.824 12.0586 143.589 12.1248 143.407 12.2573C143.228 12.3898 143.138 12.5671 143.138 12.7891C143.138 12.9896 143.222 13.1453 143.391 13.2563C143.559 13.3674 143.899 13.4801 144.411 13.5947C144.923 13.7057 145.324 13.84 145.614 13.9976C145.908 14.1515 146.125 14.3377 146.264 14.5562C146.407 14.7746 146.479 15.0396 146.479 15.3511C146.479 15.8739 146.262 16.2982 145.829 16.624C145.396 16.9463 144.828 17.1074 144.126 17.1074C143.65 17.1074 143.226 17.0215 142.854 16.8496C142.481 16.6777 142.191 16.4414 141.983 16.1406C141.776 15.8398 141.672 15.5158 141.672 15.1685H142.939C142.957 15.4764 143.074 15.7145 143.289 15.8828C143.503 16.0475 143.788 16.1299 144.143 16.1299C144.486 16.1299 144.748 16.0654 144.927 15.9365C145.106 15.804 145.195 15.6322 145.195 15.4209ZM151.093 17C151.035 16.889 150.985 16.7082 150.942 16.4575C150.527 16.8908 150.019 17.1074 149.417 17.1074C148.833 17.1074 148.357 16.9409 147.988 16.6079C147.619 16.2749 147.435 15.8631 147.435 15.3726C147.435 14.7531 147.664 14.2786 148.123 13.9492C148.584 13.6162 149.243 13.4497 150.099 13.4497H150.899V13.0684C150.899 12.7676 150.815 12.5277 150.647 12.3486C150.479 12.166 150.223 12.0747 149.879 12.0747C149.582 12.0747 149.338 12.1499 149.148 12.3003C148.959 12.4471 148.864 12.6351 148.864 12.8643H147.559C147.559 12.5456 147.664 12.2484 147.875 11.9727C148.087 11.6934 148.373 11.4749 148.735 11.3174C149.1 11.1598 149.507 11.0811 149.954 11.0811C150.634 11.0811 151.177 11.2529 151.582 11.5967C151.986 11.9368 152.194 12.4167 152.205 13.0361V15.6572C152.205 16.18 152.278 16.5972 152.425 16.9087V17H151.093ZM149.659 16.0601C149.917 16.0601 150.158 15.9974 150.384 15.8721C150.613 15.7467 150.785 15.5785 150.899 15.3672V14.2715H150.196C149.712 14.2715 149.349 14.3556 149.105 14.5239C148.862 14.6922 148.74 14.9303 148.74 15.2383C148.74 15.4889 148.823 15.6895 148.987 15.8398C149.156 15.9867 149.379 16.0601 149.659 16.0601ZM153.343 14.0513C153.343 13.1489 153.555 12.4292 153.977 11.8921C154.403 11.3514 154.967 11.0811 155.669 11.0811C156.331 11.0811 156.852 11.312 157.232 11.7739L157.291 11.1885H158.467V16.8228C158.467 17.5854 158.229 18.187 157.753 18.6274C157.28 19.0679 156.641 19.2881 155.835 19.2881C155.409 19.2881 154.992 19.1986 154.584 19.0195C154.179 18.8441 153.871 18.6131 153.66 18.3267L154.278 17.5425C154.679 18.0187 155.173 18.2568 155.76 18.2568C156.194 18.2568 156.535 18.1387 156.786 17.9023C157.037 17.6696 157.162 17.3258 157.162 16.8711V16.479C156.786 16.8979 156.285 17.1074 155.658 17.1074C154.978 17.1074 154.421 16.8371 153.988 16.2964C153.558 15.7557 153.343 15.0073 153.343 14.0513ZM154.643 14.1641C154.643 14.7477 154.761 15.2078 154.998 15.5444C155.237 15.8774 155.569 16.0439 155.991 16.0439C156.518 16.0439 156.908 15.8184 157.162 15.3672V12.8105C156.915 12.3701 156.528 12.1499 156.002 12.1499C155.572 12.1499 155.237 12.32 154.998 12.6602C154.761 13.0003 154.643 13.5016 154.643 14.1641ZM162.372 17.1074C161.545 17.1074 160.874 16.8478 160.358 16.3286C159.846 15.8058 159.59 15.1112 159.59 14.2446V14.0835C159.59 13.5034 159.701 12.986 159.923 12.5312C160.148 12.0729 160.464 11.7166 160.868 11.4624C161.273 11.2082 161.724 11.0811 162.222 11.0811C163.013 11.0811 163.624 11.3335 164.053 11.8384C164.486 12.3433 164.703 13.0576 164.703 13.9814V14.5078H160.906C160.945 14.9876 161.104 15.3672 161.384 15.6465C161.667 15.9258 162.021 16.0654 162.447 16.0654C163.045 16.0654 163.532 15.8237 163.908 15.3403L164.612 16.0117C164.379 16.359 164.068 16.6294 163.677 16.8228C163.291 17.0125 162.855 17.1074 162.372 17.1074ZM162.216 12.1284C161.858 12.1284 161.568 12.2537 161.346 12.5044C161.128 12.755 160.988 13.1042 160.927 13.5518H163.414V13.4551C163.385 13.0182 163.269 12.6888 163.065 12.4668C162.861 12.2412 162.578 12.1284 162.216 12.1284ZM168.979 15.4209C168.979 15.1882 168.882 15.0109 168.688 14.8892C168.499 14.7674 168.182 14.66 167.738 14.5669C167.294 14.4738 166.923 14.3556 166.626 14.2124C165.974 13.8973 165.648 13.4408 165.648 12.8428C165.648 12.3415 165.86 11.9225 166.282 11.5859C166.705 11.2493 167.242 11.0811 167.894 11.0811C168.588 11.0811 169.149 11.2529 169.575 11.5967C170.004 11.9404 170.219 12.3862 170.219 12.9341H168.914C168.914 12.6834 168.821 12.4757 168.635 12.311C168.449 12.1427 168.201 12.0586 167.894 12.0586C167.607 12.0586 167.373 12.1248 167.19 12.2573C167.011 12.3898 166.921 12.5671 166.921 12.7891C166.921 12.9896 167.006 13.1453 167.174 13.2563C167.342 13.3674 167.682 13.4801 168.194 13.5947C168.706 13.7057 169.107 13.84 169.397 13.9976C169.691 14.1515 169.908 14.3377 170.047 14.5562C170.191 14.7746 170.262 15.0396 170.262 15.3511C170.262 15.8739 170.046 16.2982 169.612 16.624C169.179 16.9463 168.611 17.1074 167.91 17.1074C167.433 17.1074 167.009 17.0215 166.637 16.8496C166.264 16.6777 165.974 16.4414 165.767 16.1406C165.559 15.8398 165.455 15.5158 165.455 15.1685H166.723C166.741 15.4764 166.857 15.7145 167.072 15.8828C167.287 16.0475 167.571 16.1299 167.926 16.1299C168.27 16.1299 168.531 16.0654 168.71 15.9365C168.889 15.804 168.979 15.6322 168.979 15.4209ZM175.531 17H174.226V11.1885H175.531V17ZM174.146 9.6792C174.146 9.47868 174.208 9.31217 174.333 9.17969C174.462 9.0472 174.645 8.98096 174.881 8.98096C175.118 8.98096 175.3 9.0472 175.429 9.17969C175.558 9.31217 175.623 9.47868 175.623 9.6792C175.623 9.87614 175.558 10.0409 175.429 10.1733C175.3 10.3022 175.118 10.3667 174.881 10.3667C174.645 10.3667 174.462 10.3022 174.333 10.1733C174.208 10.0409 174.146 9.87614 174.146 9.6792ZM178.168 11.1885L178.206 11.8599C178.636 11.3407 179.2 11.0811 179.898 11.0811C181.108 11.0811 181.724 11.7739 181.746 13.1597V17H180.44V13.2349C180.44 12.866 180.36 12.5939 180.199 12.4185C180.041 12.2394 179.782 12.1499 179.42 12.1499C178.894 12.1499 178.501 12.388 178.244 12.8643V17H176.938V11.1885H178.168ZM187.455 9.77588V11.1885H188.481V12.1553H187.455V15.3994C187.455 15.6214 187.498 15.7826 187.584 15.8828C187.674 15.9795 187.831 16.0278 188.057 16.0278C188.207 16.0278 188.359 16.0099 188.513 15.9741V16.9839C188.216 17.0662 187.93 17.1074 187.654 17.1074C186.651 17.1074 186.15 16.5542 186.15 15.4478V12.1553H185.194V11.1885H186.15V9.77588H187.455ZM190.769 11.8223C191.195 11.3281 191.734 11.0811 192.386 11.0811C193.625 11.0811 194.253 11.7882 194.271 13.2026V17H192.966V13.251C192.966 12.8499 192.878 12.5671 192.703 12.4023C192.531 12.234 192.277 12.1499 191.94 12.1499C191.417 12.1499 191.027 12.3826 190.769 12.8481V17H189.464V8.75H190.769V11.8223ZM196.983 17H195.678V11.1885H196.983V17ZM195.598 9.6792C195.598 9.47868 195.66 9.31217 195.786 9.17969C195.915 9.0472 196.097 8.98096 196.333 8.98096C196.57 8.98096 196.752 9.0472 196.881 9.17969C197.01 9.31217 197.075 9.47868 197.075 9.6792C197.075 9.87614 197.01 10.0409 196.881 10.1733C196.752 10.3022 196.57 10.3667 196.333 10.3667C196.097 10.3667 195.915 10.3022 195.786 10.1733C195.66 10.0409 195.598 9.87614 195.598 9.6792ZM201.667 15.4209C201.667 15.1882 201.57 15.0109 201.377 14.8892C201.187 14.7674 200.87 14.66 200.426 14.5669C199.982 14.4738 199.612 14.3556 199.314 14.2124C198.663 13.8973 198.337 13.4408 198.337 12.8428C198.337 12.3415 198.548 11.9225 198.971 11.5859C199.393 11.2493 199.93 11.0811 200.582 11.0811C201.277 11.0811 201.837 11.2529 202.263 11.5967C202.693 11.9404 202.908 12.3862 202.908 12.9341H201.603C201.603 12.6834 201.509 12.4757 201.323 12.311C201.137 12.1427 200.89 12.0586 200.582 12.0586C200.296 12.0586 200.061 12.1248 199.878 12.2573C199.699 12.3898 199.61 12.5671 199.61 12.7891C199.61 12.9896 199.694 13.1453 199.862 13.2563C200.031 13.3674 200.371 13.4801 200.883 13.5947C201.395 13.7057 201.796 13.84 202.086 13.9976C202.38 14.1515 202.596 14.3377 202.736 14.5562C202.879 14.7746 202.951 15.0396 202.951 15.3511C202.951 15.8739 202.734 16.2982 202.301 16.624C201.868 16.9463 201.3 17.1074 200.598 17.1074C200.122 17.1074 199.698 17.0215 199.325 16.8496C198.953 16.6777 198.663 16.4414 198.455 16.1406C198.247 15.8398 198.144 15.5158 198.144 15.1685H199.411C199.429 15.4764 199.545 15.7145 199.76 15.8828C199.975 16.0475 200.26 16.1299 200.614 16.1299C200.958 16.1299 201.219 16.0654 201.398 15.9365C201.577 15.804 201.667 15.6322 201.667 15.4209ZM209.219 16.0654C209.545 16.0654 209.815 15.9705 210.03 15.7808C210.245 15.591 210.359 15.3564 210.374 15.0771H211.604C211.589 15.4388 211.476 15.7772 211.265 16.0923C211.054 16.4038 210.767 16.6509 210.406 16.8335C210.044 17.0161 209.654 17.1074 209.235 17.1074C208.422 17.1074 207.778 16.8442 207.301 16.3179C206.825 15.7915 206.587 15.0646 206.587 14.1372V14.0029C206.587 13.1185 206.823 12.4113 207.296 11.8813C207.769 11.3478 208.413 11.0811 209.229 11.0811C209.921 11.0811 210.483 11.2834 210.916 11.688C211.353 12.089 211.582 12.6172 211.604 13.2725H210.374C210.359 12.9395 210.245 12.6655 210.03 12.4507C209.819 12.2358 209.548 12.1284 209.219 12.1284C208.796 12.1284 208.47 12.2824 208.241 12.5903C208.012 12.8947 207.896 13.3584 207.892 13.9814V14.1909C207.892 14.8211 208.005 15.292 208.23 15.6035C208.46 15.9115 208.789 16.0654 209.219 16.0654ZM213.875 11.8223C214.302 11.3281 214.84 11.0811 215.492 11.0811C216.731 11.0811 217.36 11.7882 217.377 13.2026V17H216.072V13.251C216.072 12.8499 215.985 12.5671 215.809 12.4023C215.637 12.234 215.383 12.1499 215.046 12.1499C214.524 12.1499 214.133 12.3826 213.875 12.8481V17H212.57V8.75H213.875V11.8223ZM222.174 17C222.117 16.889 222.066 16.7082 222.023 16.4575C221.608 16.8908 221.1 17.1074 220.498 17.1074C219.914 17.1074 219.438 16.9409 219.069 16.6079C218.701 16.2749 218.516 15.8631 218.516 15.3726C218.516 14.7531 218.745 14.2786 219.204 13.9492C219.666 13.6162 220.324 13.4497 221.18 13.4497H221.98V13.0684C221.98 12.7676 221.896 12.5277 221.728 12.3486C221.56 12.166 221.304 12.0747 220.96 12.0747C220.663 12.0747 220.419 12.1499 220.229 12.3003C220.04 12.4471 219.945 12.6351 219.945 12.8643H218.64C218.64 12.5456 218.745 12.2484 218.957 11.9727C219.168 11.6934 219.454 11.4749 219.816 11.3174C220.181 11.1598 220.588 11.0811 221.035 11.0811C221.715 11.0811 222.258 11.2529 222.663 11.5967C223.067 11.9368 223.275 12.4167 223.286 13.0361V15.6572C223.286 16.18 223.359 16.5972 223.506 16.9087V17H222.174ZM220.74 16.0601C220.998 16.0601 221.239 15.9974 221.465 15.8721C221.694 15.7467 221.866 15.5785 221.98 15.3672V14.2715H221.277C220.793 14.2715 220.43 14.3556 220.187 14.5239C219.943 14.6922 219.821 14.9303 219.821 15.2383C219.821 15.4889 219.904 15.6895 220.068 15.8398C220.237 15.9867 220.46 16.0601 220.74 16.0601ZM226.288 9.77588V11.1885H227.314V12.1553H226.288V15.3994C226.288 15.6214 226.331 15.7826 226.417 15.8828C226.507 15.9795 226.664 16.0278 226.89 16.0278C227.04 16.0278 227.192 16.0099 227.346 15.9741V16.9839C227.049 17.0662 226.763 17.1074 226.487 17.1074C225.484 17.1074 224.983 16.5542 224.983 15.4478V12.1553H224.027V11.1885H224.983V9.77588H226.288ZM234.527 17C234.47 16.889 234.42 16.7082 234.377 16.4575C233.962 16.8908 233.453 17.1074 232.852 17.1074C232.268 17.1074 231.792 16.9409 231.423 16.6079C231.054 16.2749 230.87 15.8631 230.87 15.3726C230.87 14.7531 231.099 14.2786 231.557 13.9492C232.019 13.6162 232.678 13.4497 233.534 13.4497H234.334V13.0684C234.334 12.7676 234.25 12.5277 234.082 12.3486C233.913 12.166 233.657 12.0747 233.313 12.0747C233.016 12.0747 232.773 12.1499 232.583 12.3003C232.393 12.4471 232.298 12.6351 232.298 12.8643H230.993C230.993 12.5456 231.099 12.2484 231.31 11.9727C231.521 11.6934 231.808 11.4749 232.169 11.3174C232.535 11.1598 232.941 11.0811 233.389 11.0811C234.069 11.0811 234.611 11.2529 235.016 11.5967C235.421 11.9368 235.628 12.4167 235.639 13.0361V15.6572C235.639 16.18 235.713 16.5972 235.859 16.9087V17H234.527ZM233.093 16.0601C233.351 16.0601 233.593 15.9974 233.818 15.8721C234.048 15.7467 234.219 15.5785 234.334 15.3672V14.2715H233.63C233.147 14.2715 232.784 14.3556 232.54 14.5239C232.297 14.6922 232.175 14.9303 232.175 15.2383C232.175 15.4889 232.257 15.6895 232.422 15.8398C232.59 15.9867 232.814 16.0601 233.093 16.0601ZM240.049 12.3809C239.877 12.3522 239.7 12.3379 239.517 12.3379C238.919 12.3379 238.516 12.5671 238.309 13.0254V17H237.003V11.1885H238.25L238.282 11.8384C238.597 11.3335 239.034 11.0811 239.592 11.0811C239.778 11.0811 239.932 11.1061 240.054 11.1562L240.049 12.3809ZM243.325 17.1074C242.498 17.1074 241.827 16.8478 241.311 16.3286C240.799 15.8058 240.543 15.1112 240.543 14.2446V14.0835C240.543 13.5034 240.654 12.986 240.876 12.5312C241.102 12.0729 241.417 11.7166 241.821 11.4624C242.226 11.2082 242.677 11.0811 243.175 11.0811C243.966 11.0811 244.577 11.3335 245.006 11.8384C245.44 12.3433 245.656 13.0576 245.656 13.9814V14.5078H241.859C241.898 14.9876 242.058 15.3672 242.337 15.6465C242.62 15.9258 242.974 16.0654 243.4 16.0654C243.998 16.0654 244.485 15.8237 244.861 15.3403L245.565 16.0117C245.332 16.359 245.021 16.6294 244.63 16.8228C244.244 17.0125 243.809 17.1074 243.325 17.1074ZM243.169 12.1284C242.811 12.1284 242.521 12.2537 242.299 12.5044C242.081 12.755 241.941 13.1042 241.88 13.5518H244.367V13.4551C244.339 13.0182 244.222 12.6888 244.018 12.4668C243.814 12.2412 243.531 12.1284 243.169 12.1284ZM32.8159 28.4209C32.8159 28.1882 32.7192 28.0109 32.5259 27.8892C32.3361 27.7674 32.0192 27.66 31.5752 27.5669C31.1312 27.4738 30.7606 27.3556 30.4634 27.2124C29.8117 26.8973 29.4858 26.4408 29.4858 25.8428C29.4858 25.3415 29.6971 24.9225 30.1196 24.5859C30.5422 24.2493 31.0793 24.0811 31.731 24.0811C32.4256 24.0811 32.986 24.2529 33.4121 24.5967C33.8418 24.9404 34.0566 25.3862 34.0566 25.9341H32.7515C32.7515 25.6834 32.6584 25.4757 32.4722 25.311C32.286 25.1427 32.0389 25.0586 31.731 25.0586C31.4445 25.0586 31.21 25.1248 31.0273 25.2573C30.8483 25.3898 30.7588 25.5671 30.7588 25.7891C30.7588 25.9896 30.8429 26.1453 31.0112 26.2563C31.1795 26.3674 31.5197 26.4801 32.0317 26.5947C32.5438 26.7057 32.9448 26.84 33.2349 26.9976C33.5285 27.1515 33.7451 27.3377 33.8848 27.5562C34.028 27.7746 34.0996 28.0396 34.0996 28.3511C34.0996 28.8739 33.883 29.2982 33.4497 29.624C33.0164 29.9463 32.4489 30.1074 31.7471 30.1074C31.2708 30.1074 30.8465 30.0215 30.4741 29.8496C30.1017 29.6777 29.8117 29.4414 29.604 29.1406C29.3963 28.8398 29.2925 28.5158 29.2925 28.1685H30.5601C30.578 28.4764 30.6943 28.7145 30.9092 28.8828C31.124 29.0475 31.4087 29.1299 31.7632 29.1299C32.1069 29.1299 32.3683 29.0654 32.5474 28.9365C32.7264 28.804 32.8159 28.6322 32.8159 28.4209ZM37.8003 30.1074C36.9731 30.1074 36.3018 29.8478 35.7861 29.3286C35.2741 28.8058 35.0181 28.1112 35.0181 27.2446V27.0835C35.0181 26.5034 35.1291 25.986 35.3511 25.5312C35.5767 25.0729 35.8918 24.7166 36.2964 24.4624C36.701 24.2082 37.1522 24.0811 37.6499 24.0811C38.4412 24.0811 39.0518 24.3335 39.4814 24.8384C39.9147 25.3433 40.1313 26.0576 40.1313 26.9814V27.5078H36.334C36.3734 27.9876 36.5327 28.3672 36.812 28.6465C37.0949 28.9258 37.4494 29.0654 37.8755 29.0654C38.4735 29.0654 38.9604 28.8237 39.3364 28.3403L40.04 29.0117C39.8073 29.359 39.4958 29.6294 39.1055 29.8228C38.7188 30.0125 38.2837 30.1074 37.8003 30.1074ZM37.6445 25.1284C37.2865 25.1284 36.9964 25.2537 36.7744 25.5044C36.556 25.755 36.4163 26.1042 36.3555 26.5518H38.8423V26.4551C38.8136 26.0182 38.6973 25.6888 38.4932 25.4668C38.2891 25.2412 38.0062 25.1284 37.6445 25.1284ZM43.5366 29.0654C43.8625 29.0654 44.1328 28.9705 44.3477 28.7808C44.5625 28.591 44.6771 28.3564 44.6914 28.0771H45.9214C45.9071 28.4388 45.7943 28.7772 45.583 29.0923C45.3717 29.4038 45.0853 29.6509 44.7236 29.8335C44.362 30.0161 43.9717 30.1074 43.5527 30.1074C42.7399 30.1074 42.0954 29.8442 41.6191 29.3179C41.1429 28.7915 40.9048 28.0646 40.9048 27.1372V27.0029C40.9048 26.1185 41.1411 25.4113 41.6138 24.8813C42.0864 24.3478 42.731 24.0811 43.5474 24.0811C44.2384 24.0811 44.8006 24.2834 45.2339 24.688C45.6707 25.089 45.8999 25.6172 45.9214 26.2725H44.6914C44.6771 25.9395 44.5625 25.6655 44.3477 25.4507C44.1364 25.2358 43.866 25.1284 43.5366 25.1284C43.1141 25.1284 42.7882 25.2824 42.5591 25.5903C42.3299 25.8947 42.2135 26.3584 42.21 26.9814V27.1909C42.21 27.8211 42.3228 28.292 42.5483 28.6035C42.7775 28.9115 43.1069 29.0654 43.5366 29.0654ZM50.4277 29.4307C50.0446 29.8818 49.5003 30.1074 48.7949 30.1074C48.1647 30.1074 47.6867 29.923 47.3608 29.5542C47.0386 29.1854 46.8774 28.6519 46.8774 27.9536V24.1885H48.1826V27.9375C48.1826 28.6751 48.4888 29.0439 49.1011 29.0439C49.7349 29.0439 50.1628 28.8166 50.3848 28.3618V24.1885H51.6899V30H50.46L50.4277 29.4307ZM56.062 25.3809C55.8901 25.3522 55.7129 25.3379 55.5303 25.3379C54.9323 25.3379 54.5295 25.5671 54.3218 26.0254V30H53.0166V24.1885H54.2627L54.2949 24.8384C54.61 24.3335 55.0469 24.0811 55.6055 24.0811C55.7917 24.0811 55.9456 24.1061 56.0674 24.1562L56.062 25.3809ZM59.3384 30.1074C58.5112 30.1074 57.8398 29.8478 57.3242 29.3286C56.8122 28.8058 56.5562 28.1112 56.5562 27.2446V27.0835C56.5562 26.5034 56.6672 25.986 56.8892 25.5312C57.1147 25.0729 57.4299 24.7166 57.8345 24.4624C58.2391 24.2082 58.6903 24.0811 59.188 24.0811C59.9793 24.0811 60.5898 24.3335 61.0195 24.8384C61.4528 25.3433 61.6694 26.0576 61.6694 26.9814V27.5078H57.8721C57.9115 27.9876 58.0708 28.3672 58.3501 28.6465C58.633 28.9258 58.9875 29.0654 59.4136 29.0654C60.0116 29.0654 60.4985 28.8237 60.8745 28.3403L61.5781 29.0117C61.3454 29.359 61.0339 29.6294 60.6436 29.8228C60.2568 30.0125 59.8218 30.1074 59.3384 30.1074ZM59.1826 25.1284C58.8245 25.1284 58.5345 25.2537 58.3125 25.5044C58.0941 25.755 57.9544 26.1042 57.8936 26.5518H60.3804V26.4551C60.3517 26.0182 60.2354 25.6888 60.0312 25.4668C59.8271 25.2412 59.5443 25.1284 59.1826 25.1284ZM62.4429 27.0513C62.4429 26.1561 62.6506 25.4382 63.0659 24.8975C63.4813 24.3532 64.0381 24.0811 64.7363 24.0811C65.3522 24.0811 65.8499 24.2959 66.2295 24.7256V21.75H67.5347V30H66.353L66.2886 29.3984C65.8983 29.8711 65.3773 30.1074 64.7256 30.1074C64.0452 30.1074 63.4938 29.8335 63.0713 29.2856C62.6523 28.7378 62.4429 27.993 62.4429 27.0513ZM63.748 27.1641C63.748 27.7549 63.8608 28.2168 64.0864 28.5498C64.3156 28.8792 64.6396 29.0439 65.0586 29.0439C65.5921 29.0439 65.9824 28.8058 66.2295 28.3296V25.8481C65.9896 25.3826 65.6029 25.1499 65.0693 25.1499C64.6468 25.1499 64.321 25.3182 64.0918 25.6548C63.8626 25.9878 63.748 26.4909 63.748 27.1641ZM76.7407 28.2007L77.6646 24.1885H78.9375L77.353 30H76.2788L75.0327 26.0093L73.8081 30H72.7339L71.144 24.1885H72.417L73.3569 28.1577L74.5493 24.1885H75.5322L76.7407 28.2007ZM81.1987 30H79.8936V24.1885H81.1987V30ZM79.813 22.6792C79.813 22.4787 79.8757 22.3122 80.001 22.1797C80.1299 22.0472 80.3125 21.981 80.5488 21.981C80.7852 21.981 80.9678 22.0472 81.0967 22.1797C81.2256 22.3122 81.29 22.4787 81.29 22.6792C81.29 22.8761 81.2256 23.0409 81.0967 23.1733C80.9678 23.3022 80.7852 23.3667 80.5488 23.3667C80.3125 23.3667 80.1299 23.3022 80.001 23.1733C79.8757 23.0409 79.813 22.8761 79.813 22.6792ZM84.2603 22.7759V24.1885H85.2861V25.1553H84.2603V28.3994C84.2603 28.6214 84.3032 28.7826 84.3892 28.8828C84.4787 28.9795 84.6362 29.0278 84.8618 29.0278C85.0122 29.0278 85.1644 29.0099 85.3184 28.9741V29.9839C85.0212 30.0662 84.7347 30.1074 84.459 30.1074C83.4564 30.1074 82.9551 29.5542 82.9551 28.4478V25.1553H81.999V24.1885H82.9551V22.7759H84.2603ZM87.5742 24.8223C88.0003 24.3281 88.5392 24.0811 89.1909 24.0811C90.4299 24.0811 91.0583 24.7882 91.0762 26.2026V30H89.771V26.251C89.771 25.8499 89.6833 25.5671 89.5078 25.4023C89.3359 25.234 89.0817 25.1499 88.7451 25.1499C88.2223 25.1499 87.832 25.3826 87.5742 25.8481V30H86.269V21.75H87.5742V24.8223ZM97.6987 30.1074C96.8716 30.1074 96.2002 29.8478 95.6846 29.3286C95.1725 28.8058 94.9165 28.1112 94.9165 27.2446V27.0835C94.9165 26.5034 95.0275 25.986 95.2495 25.5312C95.4751 25.0729 95.7902 24.7166 96.1948 24.4624C96.5994 24.2082 97.0506 24.0811 97.5483 24.0811C98.3397 24.0811 98.9502 24.3335 99.3799 24.8384C99.8132 25.3433 100.03 26.0576 100.03 26.9814V27.5078H96.2324C96.2718 27.9876 96.4312 28.3672 96.7104 28.6465C96.9933 28.9258 97.3478 29.0654 97.7739 29.0654C98.3719 29.0654 98.8589 28.8237 99.2349 28.3403L99.9385 29.0117C99.7057 29.359 99.3942 29.6294 99.0039 29.8228C98.6172 30.0125 98.1821 30.1074 97.6987 30.1074ZM97.543 25.1284C97.1849 25.1284 96.8949 25.2537 96.6729 25.5044C96.4544 25.755 96.3148 26.1042 96.2539 26.5518H98.7407V26.4551C98.7121 26.0182 98.5957 25.6888 98.3916 25.4668C98.1875 25.2412 97.9046 25.1284 97.543 25.1284ZM102.259 24.1885L102.296 24.8599C102.726 24.3407 103.29 24.0811 103.988 24.0811C105.199 24.0811 105.814 24.7739 105.836 26.1597V30H104.531V26.2349C104.531 25.866 104.45 25.5939 104.289 25.4185C104.132 25.2394 103.872 25.1499 103.51 25.1499C102.984 25.1499 102.592 25.388 102.334 25.8643V30H101.029V24.1885H102.259ZM106.926 27.0513C106.926 26.1561 107.134 25.4382 107.549 24.8975C107.965 24.3532 108.521 24.0811 109.22 24.0811C109.836 24.0811 110.333 24.2959 110.713 24.7256V21.75H112.018V30H110.836L110.772 29.3984C110.382 29.8711 109.861 30.1074 109.209 30.1074C108.529 30.1074 107.977 29.8335 107.555 29.2856C107.136 28.7378 106.926 27.993 106.926 27.0513ZM108.231 27.1641C108.231 27.7549 108.344 28.2168 108.57 28.5498C108.799 28.8792 109.123 29.0439 109.542 29.0439C110.076 29.0439 110.466 28.8058 110.713 28.3296V25.8481C110.473 25.3826 110.086 25.1499 109.553 25.1499C109.13 25.1499 108.804 25.3182 108.575 25.6548C108.346 25.9878 108.231 26.4909 108.231 27.1641ZM115.912 27.2017H113.092V26.1489H115.912V27.2017ZM118.625 22.7759V24.1885H119.65V25.1553H118.625V28.3994C118.625 28.6214 118.667 28.7826 118.753 28.8828C118.843 28.9795 119 29.0278 119.226 29.0278C119.376 29.0278 119.529 29.0099 119.683 28.9741V29.9839C119.385 30.0662 119.099 30.1074 118.823 30.1074C117.821 30.1074 117.319 29.5542 117.319 28.4478V25.1553H116.363V24.1885H117.319V22.7759H118.625ZM120.247 27.0405C120.247 26.4712 120.359 25.9591 120.585 25.5044C120.811 25.0461 121.127 24.6951 121.536 24.4517C121.944 24.2046 122.413 24.0811 122.943 24.0811C123.727 24.0811 124.363 24.3335 124.85 24.8384C125.34 25.3433 125.605 26.0129 125.645 26.8472L125.65 27.1533C125.65 27.7262 125.539 28.2383 125.317 28.6895C125.098 29.1406 124.783 29.4897 124.372 29.7368C123.963 29.9839 123.491 30.1074 122.954 30.1074C122.134 30.1074 121.477 29.8353 120.982 29.291C120.492 28.7432 120.247 28.0145 120.247 27.105V27.0405ZM121.552 27.1533C121.552 27.7513 121.675 28.2204 121.922 28.5605C122.169 28.8971 122.513 29.0654 122.954 29.0654C123.394 29.0654 123.736 28.8936 123.979 28.5498C124.227 28.2061 124.35 27.703 124.35 27.0405C124.35 26.4533 124.223 25.9878 123.969 25.644C123.718 25.3003 123.376 25.1284 122.943 25.1284C122.517 25.1284 122.178 25.2985 121.928 25.6387C121.677 25.9753 121.552 26.4801 121.552 27.1533ZM129.286 27.2017H126.466V26.1489H129.286V27.2017ZM132.922 30.1074C132.095 30.1074 131.424 29.8478 130.908 29.3286C130.396 28.8058 130.14 28.1112 130.14 27.2446V27.0835C130.14 26.5034 130.251 25.986 130.473 25.5312C130.699 25.0729 131.014 24.7166 131.418 24.4624C131.823 24.2082 132.274 24.0811 132.772 24.0811C133.563 24.0811 134.174 24.3335 134.604 24.8384C135.037 25.3433 135.253 26.0576 135.253 26.9814V27.5078H131.456C131.495 27.9876 131.655 28.3672 131.934 28.6465C132.217 28.9258 132.571 29.0654 132.998 29.0654C133.596 29.0654 134.083 28.8237 134.458 28.3403L135.162 29.0117C134.929 29.359 134.618 29.6294 134.228 29.8228C133.841 30.0125 133.406 30.1074 132.922 30.1074ZM132.767 25.1284C132.409 25.1284 132.118 25.2537 131.896 25.5044C131.678 25.755 131.538 26.1042 131.478 26.5518H133.964V26.4551C133.936 26.0182 133.819 25.6888 133.615 25.4668C133.411 25.2412 133.128 25.1284 132.767 25.1284ZM137.482 24.1885L137.52 24.8599C137.95 24.3407 138.514 24.0811 139.212 24.0811C140.422 24.0811 141.038 24.7739 141.06 26.1597V30H139.754V26.2349C139.754 25.866 139.674 25.5939 139.513 25.4185C139.355 25.2394 139.096 25.1499 138.734 25.1499C138.208 25.1499 137.815 25.388 137.558 25.8643V30H136.252V24.1885H137.482ZM142.15 27.0513C142.15 26.1561 142.358 25.4382 142.773 24.8975C143.188 24.3532 143.745 24.0811 144.443 24.0811C145.059 24.0811 145.557 24.2959 145.937 24.7256V21.75H147.242V30H146.06L145.996 29.3984C145.605 29.8711 145.084 30.1074 144.433 30.1074C143.752 30.1074 143.201 29.8335 142.778 29.2856C142.359 28.7378 142.15 27.993 142.15 27.0513ZM143.455 27.1641C143.455 27.7549 143.568 28.2168 143.793 28.5498C144.023 28.8792 144.347 29.0439 144.766 29.0439C145.299 29.0439 145.689 28.8058 145.937 28.3296V25.8481C145.697 25.3826 145.31 25.1499 144.776 25.1499C144.354 25.1499 144.028 25.3182 143.799 25.6548C143.57 25.9878 143.455 26.4909 143.455 27.1641ZM153.902 30.1074C153.075 30.1074 152.403 29.8478 151.888 29.3286C151.376 28.8058 151.12 28.1112 151.12 27.2446V27.0835C151.12 26.5034 151.231 25.986 151.453 25.5312C151.678 25.0729 151.993 24.7166 152.398 24.4624C152.803 24.2082 153.254 24.0811 153.751 24.0811C154.543 24.0811 155.153 24.3335 155.583 24.8384C156.016 25.3433 156.233 26.0576 156.233 26.9814V27.5078H152.436C152.475 27.9876 152.634 28.3672 152.914 28.6465C153.196 28.9258 153.551 29.0654 153.977 29.0654C154.575 29.0654 155.062 28.8237 155.438 28.3403L156.142 29.0117C155.909 29.359 155.597 29.6294 155.207 29.8228C154.82 30.0125 154.385 30.1074 153.902 30.1074ZM153.746 25.1284C153.388 25.1284 153.098 25.2537 152.876 25.5044C152.658 25.755 152.518 26.1042 152.457 26.5518H154.944V26.4551C154.915 26.0182 154.799 25.6888 154.595 25.4668C154.391 25.2412 154.108 25.1284 153.746 25.1284ZM158.462 24.1885L158.5 24.8599C158.929 24.3407 159.493 24.0811 160.191 24.0811C161.402 24.0811 162.018 24.7739 162.039 26.1597V30H160.734V26.2349C160.734 25.866 160.653 25.5939 160.492 25.4185C160.335 25.2394 160.075 25.1499 159.713 25.1499C159.187 25.1499 158.795 25.388 158.537 25.8643V30H157.232V24.1885H158.462ZM165.761 29.0654C166.087 29.0654 166.357 28.9705 166.572 28.7808C166.787 28.591 166.902 28.3564 166.916 28.0771H168.146C168.132 28.4388 168.019 28.7772 167.808 29.0923C167.596 29.4038 167.31 29.6509 166.948 29.8335C166.587 30.0161 166.196 30.1074 165.777 30.1074C164.965 30.1074 164.32 29.8442 163.844 29.3179C163.368 28.7915 163.129 28.0646 163.129 27.1372V27.0029C163.129 26.1185 163.366 25.4113 163.838 24.8813C164.311 24.3478 164.956 24.0811 165.772 24.0811C166.463 24.0811 167.025 24.2834 167.458 24.688C167.895 25.089 168.125 25.6172 168.146 26.2725H166.916C166.902 25.9395 166.787 25.6655 166.572 25.4507C166.361 25.2358 166.091 25.1284 165.761 25.1284C165.339 25.1284 165.013 25.2824 164.784 25.5903C164.555 25.8947 164.438 26.3584 164.435 26.9814V27.1909C164.435 27.8211 164.547 28.292 164.773 28.6035C165.002 28.9115 165.332 29.0654 165.761 29.0654ZM172.174 25.3809C172.002 25.3522 171.825 25.3379 171.643 25.3379C171.045 25.3379 170.642 25.5671 170.434 26.0254V30H169.129V24.1885H170.375L170.407 24.8384C170.722 24.3335 171.159 24.0811 171.718 24.0811C171.904 24.0811 172.058 24.1061 172.18 24.1562L172.174 25.3809ZM175.128 28.1309L176.31 24.1885H177.701L175.392 30.8809C175.037 31.8584 174.436 32.3472 173.587 32.3472C173.397 32.3472 173.188 32.3149 172.958 32.2505V31.2407L173.206 31.2568C173.535 31.2568 173.782 31.196 173.947 31.0742C174.115 30.9561 174.248 30.7555 174.344 30.4727L174.532 29.9731L172.491 24.1885H173.898L175.128 28.1309ZM183.545 27.1533C183.545 28.0521 183.341 28.77 182.933 29.3071C182.524 29.8407 181.977 30.1074 181.289 30.1074C180.652 30.1074 180.141 29.8979 179.758 29.479V32.2344H178.453V24.1885H179.656L179.71 24.7793C180.093 24.3138 180.614 24.0811 181.273 24.0811C181.982 24.0811 182.537 24.346 182.938 24.876C183.343 25.4023 183.545 26.1346 183.545 27.0728V27.1533ZM182.245 27.0405C182.245 26.4604 182.129 26.0003 181.896 25.6602C181.667 25.32 181.337 25.1499 180.908 25.1499C180.374 25.1499 179.991 25.3701 179.758 25.8105V28.3887C179.995 28.8398 180.381 29.0654 180.918 29.0654C181.334 29.0654 181.658 28.8989 181.891 28.5659C182.127 28.2293 182.245 27.7209 182.245 27.0405ZM186.29 22.7759V24.1885H187.315V25.1553H186.29V28.3994C186.29 28.6214 186.333 28.7826 186.418 28.8828C186.508 28.9795 186.666 29.0278 186.891 29.0278C187.042 29.0278 187.194 29.0099 187.348 28.9741V29.9839C187.05 30.0662 186.764 30.1074 186.488 30.1074C185.486 30.1074 184.984 29.5542 184.984 28.4478V25.1553H184.028V24.1885H184.984V22.7759H186.29ZM189.706 30H188.4V24.1885H189.706V30ZM188.32 22.6792C188.32 22.4787 188.382 22.3122 188.508 22.1797C188.637 22.0472 188.819 21.981 189.056 21.981C189.292 21.981 189.475 22.0472 189.604 22.1797C189.732 22.3122 189.797 22.4787 189.797 22.6792C189.797 22.8761 189.732 23.0409 189.604 23.1733C189.475 23.3022 189.292 23.3667 189.056 23.3667C188.819 23.3667 188.637 23.3022 188.508 23.1733C188.382 23.0409 188.32 22.8761 188.32 22.6792ZM190.887 27.0405C190.887 26.4712 191 25.9591 191.226 25.5044C191.451 25.0461 191.768 24.6951 192.176 24.4517C192.584 24.2046 193.054 24.0811 193.583 24.0811C194.368 24.0811 195.003 24.3335 195.49 24.8384C195.981 25.3433 196.246 26.0129 196.285 26.8472L196.291 27.1533C196.291 27.7262 196.18 28.2383 195.958 28.6895C195.739 29.1406 195.424 29.4897 195.012 29.7368C194.604 29.9839 194.131 30.1074 193.594 30.1074C192.774 30.1074 192.117 29.8353 191.623 29.291C191.132 28.7432 190.887 28.0145 190.887 27.105V27.0405ZM192.192 27.1533C192.192 27.7513 192.316 28.2204 192.563 28.5605C192.81 28.8971 193.154 29.0654 193.594 29.0654C194.035 29.0654 194.377 28.8936 194.62 28.5498C194.867 28.2061 194.991 27.703 194.991 27.0405C194.991 26.4533 194.864 25.9878 194.609 25.644C194.359 25.3003 194.017 25.1284 193.583 25.1284C193.157 25.1284 192.819 25.2985 192.568 25.6387C192.318 25.9753 192.192 26.4801 192.192 27.1533ZM198.605 24.1885L198.643 24.8599C199.073 24.3407 199.637 24.0811 200.335 24.0811C201.545 24.0811 202.161 24.7739 202.183 26.1597V30H200.877V26.2349C200.877 25.866 200.797 25.5939 200.636 25.4185C200.478 25.2394 200.219 25.1499 199.857 25.1499C199.331 25.1499 198.938 25.388 198.681 25.8643V30H197.375V24.1885H198.605ZM204.331 28.625C204.575 28.625 204.763 28.6948 204.895 28.8345C205.028 28.9705 205.094 29.1424 205.094 29.3501C205.094 29.5542 205.028 29.7243 204.895 29.8604C204.763 29.9928 204.575 30.0591 204.331 30.0591C204.098 30.0591 203.914 29.9928 203.778 29.8604C203.642 29.7279 203.574 29.5578 203.574 29.3501C203.574 29.1424 203.64 28.9705 203.772 28.8345C203.905 28.6948 204.091 28.625 204.331 28.625ZM210.97 28.7056H214.391V30H209.358V22.1797H210.97V28.7056ZM217.893 30.1074C217.041 30.1074 216.346 29.846 215.809 29.3232C215.276 28.8005 215.009 28.104 215.009 27.2339V27.0835C215.009 26.4998 215.122 25.9788 215.347 25.5205C215.573 25.0586 215.891 24.7041 216.303 24.457C216.719 24.2064 217.191 24.0811 217.721 24.0811C218.516 24.0811 219.141 24.3317 219.596 24.833C220.054 25.3343 220.283 26.0451 220.283 26.9653V27.5991H216.583C216.633 27.9787 216.783 28.283 217.034 28.5122C217.288 28.7414 217.608 28.856 217.995 28.856C218.593 28.856 219.06 28.6393 219.397 28.2061L220.16 29.0601C219.927 29.3895 219.612 29.6473 219.214 29.8335C218.817 30.0161 218.376 30.1074 217.893 30.1074ZM217.716 25.3379C217.408 25.3379 217.157 25.4417 216.964 25.6494C216.774 25.8571 216.652 26.1543 216.599 26.541H218.758V26.4175C218.751 26.0737 218.658 25.8088 218.479 25.6226C218.299 25.4328 218.045 25.3379 217.716 25.3379ZM224.537 30C224.465 29.8604 224.414 29.6867 224.381 29.479C224.005 29.8979 223.517 30.1074 222.915 30.1074C222.346 30.1074 221.873 29.9427 221.497 29.6133C221.125 29.2839 220.938 28.8685 220.938 28.3672C220.938 27.7513 221.166 27.2786 221.621 26.9492C222.079 26.6198 222.74 26.4533 223.603 26.4497H224.317V26.1167C224.317 25.8481 224.247 25.6333 224.107 25.4722C223.971 25.311 223.755 25.2305 223.458 25.2305C223.196 25.2305 222.99 25.2931 222.84 25.4185C222.693 25.5438 222.62 25.7157 222.62 25.9341H221.067C221.067 25.5975 221.171 25.286 221.379 24.9995C221.587 24.7131 221.88 24.4893 222.26 24.3281C222.639 24.1634 223.065 24.0811 223.538 24.0811C224.254 24.0811 224.822 24.2619 225.241 24.6235C225.663 24.9816 225.875 25.4865 225.875 26.1382V28.6572C225.878 29.2087 225.955 29.6258 226.105 29.9087V30H224.537ZM223.253 28.9204C223.483 28.9204 223.694 28.8703 223.887 28.77C224.081 28.6662 224.224 28.5283 224.317 28.3564V27.3574H223.737C222.96 27.3574 222.546 27.626 222.496 28.1631L222.491 28.2544C222.491 28.4478 222.559 28.6071 222.695 28.7324C222.831 28.8577 223.017 28.9204 223.253 28.9204ZM230.333 25.644C230.121 25.6154 229.935 25.6011 229.774 25.6011C229.187 25.6011 228.802 25.7998 228.619 26.1973V30H227.067V24.1885H228.533L228.576 24.8813C228.888 24.3478 229.319 24.0811 229.871 24.0811C230.042 24.0811 230.204 24.1043 230.354 24.1509L230.333 25.644ZM232.513 24.1885L232.562 24.8599C232.977 24.3407 233.534 24.0811 234.232 24.0811C234.848 24.0811 235.306 24.2619 235.607 24.6235C235.908 24.9852 236.062 25.5259 236.069 26.2456V30H234.517V26.2832C234.517 25.9538 234.445 25.7157 234.302 25.5688C234.159 25.4185 233.92 25.3433 233.587 25.3433C233.151 25.3433 232.823 25.5295 232.604 25.9019V30H231.052V24.1885H232.513ZM242.197 22.1797L244.206 27.8516L246.204 22.1797H248.32V30H246.704V27.8623L246.865 24.1724L244.754 30H243.647L241.542 24.1777L241.703 27.8623V30H240.092V22.1797H242.197ZM249.384 27.0405C249.384 26.464 249.495 25.9502 249.717 25.499C249.939 25.0479 250.257 24.6987 250.673 24.4517C251.092 24.2046 251.577 24.0811 252.128 24.0811C252.913 24.0811 253.552 24.321 254.046 24.8008C254.544 25.2806 254.821 25.9323 254.878 26.7559L254.889 27.1533C254.889 28.0449 254.64 28.7611 254.143 29.3018C253.645 29.8389 252.977 30.1074 252.139 30.1074C251.301 30.1074 250.632 29.8389 250.13 29.3018C249.633 28.7646 249.384 28.0342 249.384 27.1104V27.0405ZM250.936 27.1533C250.936 27.7048 251.04 28.1273 251.248 28.4209C251.455 28.7109 251.752 28.856 252.139 28.856C252.515 28.856 252.809 28.7127 253.02 28.4263C253.231 28.1362 253.337 27.6743 253.337 27.0405C253.337 26.4998 253.231 26.0809 253.02 25.7837C252.809 25.4865 252.512 25.3379 252.128 25.3379C251.749 25.3379 251.455 25.4865 251.248 25.7837C251.04 26.0773 250.936 26.5339 250.936 27.1533ZM259.111 25.644C258.9 25.6154 258.713 25.6011 258.552 25.6011C257.965 25.6011 257.58 25.7998 257.397 26.1973V30H255.845V24.1885H257.312L257.354 24.8813C257.666 24.3478 258.097 24.0811 258.649 24.0811C258.821 24.0811 258.982 24.1043 259.132 24.1509L259.111 25.644ZM262.43 30.1074C261.578 30.1074 260.883 29.846 260.346 29.3232C259.813 28.8005 259.546 28.104 259.546 27.2339V27.0835C259.546 26.4998 259.659 25.9788 259.884 25.5205C260.11 25.0586 260.429 24.7041 260.84 24.457C261.256 24.2064 261.728 24.0811 262.258 24.0811C263.053 24.0811 263.678 24.3317 264.133 24.833C264.591 25.3343 264.82 26.0451 264.82 26.9653V27.5991H261.12C261.17 27.9787 261.32 28.283 261.571 28.5122C261.825 28.7414 262.146 28.856 262.532 28.856C263.13 28.856 263.597 28.6393 263.934 28.2061L264.697 29.0601C264.464 29.3895 264.149 29.6473 263.751 29.8335C263.354 30.0161 262.914 30.1074 262.43 30.1074ZM262.253 25.3379C261.945 25.3379 261.694 25.4417 261.501 25.6494C261.311 25.8571 261.189 26.1543 261.136 26.541H263.295V26.4175C263.288 26.0737 263.195 25.8088 263.016 25.6226C262.837 25.4328 262.582 25.3379 262.253 25.3379Z" fill="white"/>
<path d="M208.66 31.0742H265.105V31.6113H208.66V31.0742Z" fill="white"/>
<path d="M43.3461 8.82754L39.0643 7.09472C38.7523 6.96843 38.4034 6.96843 38.0914 7.09472L33.8096 8.82754C33.2724 9.04495 32.9451 9.59361 33.0076 10.1697C33.4164 13.9331 35.9638 19.0349 38.5779 19.0349C41.192 19.0349 43.7393 13.9331 44.1481 10.1697C44.2108 9.59276 43.8841 9.04524 43.3461 8.82754ZM42.7783 10.8016C42.4963 13.6685 40.7276 17.6985 38.5778 17.6985C36.428 17.6985 34.6593 13.6685 34.3773 10.8016C34.3343 10.3637 34.5892 9.95027 35.0003 9.79323L38.2291 8.5595C38.3414 8.51658 38.4596 8.49515 38.5778 8.49515C38.6961 8.49515 38.8143 8.51658 38.9266 8.5595L42.1553 9.79323C42.567 9.95052 42.8214 10.363 42.7783 10.8016Z" fill="white"/>
<path d="M35.3028 10.5845C35.2487 10.6052 35.2149 10.6603 35.2206 10.7185C35.3553 12.0879 35.8535 13.6973 36.5208 14.9188C37.1817 16.1287 37.9508 16.851 38.5779 16.851V9.34229C38.562 9.34229 38.5464 9.34517 38.5316 9.35084L35.3028 10.5845Z" fill="white"/>
</g>
</svg>
