<svg width="227" height="227" viewBox="0 0 227 227" fill="none" xmlns="http://www.w3.org/2000/svg">
<circle cx="113.5" cy="113.5" r="113.5" fill="white"/>
<path d="M150.853 130.112C148.192 137.323 144.168 143.594 138.89 148.747C132.883 154.613 125.018 159.274 115.511 162.599C115.199 162.708 114.874 162.797 114.547 162.863C114.115 162.948 113.675 162.994 113.239 163H113.154C112.689 163 112.223 162.953 111.76 162.863C111.433 162.797 111.112 162.708 110.801 162.601C101.283 159.282 93.4078 154.623 87.3948 148.757C82.1151 143.604 78.0916 137.337 75.4344 130.125C70.6027 117.013 70.8776 102.568 71.0989 90.9608L71.1027 90.7825C71.1473 89.8241 71.176 88.8172 71.1918 87.7054C71.2726 82.2468 75.6127 77.7308 81.0721 77.4264C92.4546 76.7911 101.26 73.0788 108.784 65.7455L108.849 65.685C110.099 64.5392 111.673 63.9773 113.239 64.0007C114.75 64.0203 116.254 64.5815 117.459 65.685L117.523 65.7455C125.049 73.0788 133.854 76.7911 145.237 77.4264C150.696 77.7308 155.036 82.2468 155.117 87.7054C155.133 88.8248 155.161 89.8301 155.206 90.7825L155.208 90.8581C155.429 102.488 155.702 116.961 150.853 130.112Z" fill="#A07DBB"/>
<path d="M150.853 130.111C148.192 137.323 144.168 143.594 138.89 148.747C132.883 154.613 125.017 159.274 115.511 162.599C115.199 162.708 114.874 162.797 114.546 162.862C114.114 162.948 113.675 162.994 113.239 163V64.0005C114.75 64.0201 116.254 64.5813 117.459 65.6848L117.523 65.7453C125.048 73.0786 133.854 76.7909 145.236 77.4262C150.696 77.7305 155.036 82.2466 155.117 87.7052C155.132 88.8246 155.161 89.8299 155.206 90.7823L155.208 90.8579C155.428 102.487 155.702 116.961 150.853 130.111Z" fill="#86689D"/>
<path d="M137.825 113.5C137.825 127.075 126.803 138.126 113.239 138.174H113.152C99.5482 138.174 88.4784 127.105 88.4784 113.5C88.4784 99.8962 99.5482 88.8271 113.152 88.8271H113.239C126.803 88.8755 137.825 99.9257 137.825 113.5Z" fill="white"/>
<path d="M137.825 113.5C137.825 127.075 126.803 138.126 113.239 138.174V88.8271C126.803 88.8755 137.825 99.9257 137.825 113.5Z" fill="#E1EBF0"/>
<path d="M124.351 109.947L113.239 121.061L110.838 123.462C110.271 124.029 109.527 124.312 108.783 124.312C108.039 124.312 107.296 124.029 106.728 123.462L101.566 118.297C100.431 117.163 100.431 115.325 101.566 114.19C102.699 113.055 104.539 113.055 105.673 114.19L108.783 117.3L120.244 105.84C121.378 104.704 123.218 104.704 124.351 105.84C125.486 106.974 125.486 108.814 124.351 109.947Z" fill="#E6C6FF"/>
<path d="M124.351 109.947L113.239 121.061V112.844L120.244 105.84C121.378 104.704 123.218 104.704 124.351 105.84C125.486 106.974 125.486 108.814 124.351 109.947Z" fill="#C8A4E4"/>
</svg>
