<svg width="123" height="28" viewBox="0 0 123 28" fill="none" xmlns="http://www.w3.org/2000/svg">
<path d="M0 0H105C112.732 0 119 6.26801 119 14C119 21.732 112.732 28 105 28H15C6.71573 28 0 21.2843 0 13V0Z" fill="white"/>
<path opacity="0.9" d="M18.918 17H17.8813V13.3853H13.939V17H12.9077V9.17969H13.939V12.542H17.8813V9.17969H18.918V17ZM23.0054 17.1074C22.2176 17.1074 21.5767 16.8496 21.0825 16.334C20.5884 15.8148 20.3413 15.1219 20.3413 14.2554V14.0728C20.3413 13.4963 20.4505 12.9824 20.6689 12.5312C20.891 12.0765 21.1989 11.722 21.5928 11.4678C21.9902 11.21 22.4199 11.0811 22.8818 11.0811C23.6374 11.0811 24.2246 11.3299 24.6436 11.8276C25.0625 12.3254 25.272 13.0379 25.272 13.9653V14.3789H21.335C21.3493 14.9518 21.5158 15.4155 21.8345 15.77C22.1567 16.1209 22.5649 16.2964 23.0591 16.2964C23.41 16.2964 23.7072 16.2248 23.9507 16.0815C24.1942 15.9383 24.4072 15.7485 24.5898 15.5122L25.1968 15.9849C24.7098 16.7332 23.9793 17.1074 23.0054 17.1074ZM22.8818 11.8975C22.4808 11.8975 22.1442 12.0443 21.8721 12.3379C21.5999 12.6279 21.4316 13.0361 21.3672 13.5625H24.2783V13.4873C24.2497 12.9824 24.1136 12.5921 23.8701 12.3164C23.6266 12.0371 23.2972 11.8975 22.8818 11.8975ZM27.5063 17H26.5127V8.75H27.5063V17ZM30.1812 17H29.1875V8.75H30.1812V17ZM31.5132 14.0405C31.5132 13.4712 31.6242 12.9591 31.8462 12.5044C32.0718 12.0496 32.3833 11.6987 32.7808 11.4517C33.1818 11.2046 33.6383 11.0811 34.1504 11.0811C34.9417 11.0811 35.5809 11.355 36.0679 11.9028C36.5584 12.4507 36.8037 13.1794 36.8037 14.0889V14.1587C36.8037 14.7244 36.6945 15.2329 36.4761 15.6841C36.2612 16.1317 35.9515 16.4808 35.5469 16.7314C35.1458 16.9821 34.6839 17.1074 34.1611 17.1074C33.3734 17.1074 32.7342 16.8335 32.2437 16.2856C31.7567 15.7378 31.5132 15.0127 31.5132 14.1104V14.0405ZM32.5122 14.1587C32.5122 14.8032 32.6608 15.3206 32.958 15.7109C33.2588 16.1012 33.6598 16.2964 34.1611 16.2964C34.666 16.2964 35.0671 16.0994 35.3643 15.7056C35.6615 15.3081 35.8101 14.7531 35.8101 14.0405C35.8101 13.4032 35.6579 12.8875 35.3535 12.4937C35.0527 12.0962 34.6517 11.8975 34.1504 11.8975C33.6598 11.8975 33.2642 12.0926 32.9634 12.4829C32.6626 12.8732 32.5122 13.4318 32.5122 14.1587Z" fill="#525252"/>
<path opacity="0.9" d="M78.8477 17H78.1211V12.1836L76.6641 12.7188V12.0625L78.7344 11.2852H78.8477V17ZM84.5312 14.5742C84.5312 15.4206 84.3867 16.0495 84.0977 16.4609C83.8086 16.8724 83.3568 17.0781 82.7422 17.0781C82.1354 17.0781 81.6862 16.8776 81.3945 16.4766C81.1029 16.0729 80.9518 15.4714 80.9414 14.6719V13.707C80.9414 12.8711 81.0859 12.25 81.375 11.8438C81.6641 11.4375 82.1172 11.2344 82.7344 11.2344C83.3464 11.2344 83.7969 11.431 84.0859 11.8242C84.375 12.2148 84.5234 12.819 84.5312 13.6367V14.5742ZM83.8086 13.5859C83.8086 12.974 83.7227 12.5286 83.5508 12.25C83.3789 11.9688 83.1068 11.8281 82.7344 11.8281C82.3646 11.8281 82.0951 11.9674 81.9258 12.2461C81.7565 12.5247 81.6693 12.9531 81.6641 13.5312V14.6875C81.6641 15.3021 81.7526 15.7565 81.9297 16.0508C82.1094 16.3424 82.3802 16.4883 82.7422 16.4883C83.099 16.4883 83.3633 16.3503 83.5352 16.0742C83.7096 15.7982 83.8008 15.3633 83.8086 14.7695V13.5859ZM85.5078 16.6211C85.5078 16.4961 85.5443 16.3919 85.6172 16.3086C85.6927 16.2253 85.8047 16.1836 85.9531 16.1836C86.1016 16.1836 86.2135 16.2253 86.2891 16.3086C86.3672 16.3919 86.4062 16.4961 86.4062 16.6211C86.4062 16.7409 86.3672 16.8411 86.2891 16.9219C86.2135 17.0026 86.1016 17.043 85.9531 17.043C85.8047 17.043 85.6927 17.0026 85.6172 16.9219C85.5443 16.8411 85.5078 16.7409 85.5078 16.6211ZM85.5117 13.1719C85.5117 13.0469 85.5482 12.9427 85.6211 12.8594C85.6966 12.776 85.8086 12.7344 85.957 12.7344C86.1055 12.7344 86.2174 12.776 86.293 12.8594C86.3711 12.9427 86.4102 13.0469 86.4102 13.1719C86.4102 13.2917 86.3711 13.3919 86.293 13.4727C86.2174 13.5534 86.1055 13.5938 85.957 13.5938C85.8086 13.5938 85.6966 13.5534 85.6211 13.4727C85.5482 13.3919 85.5117 13.2917 85.5117 13.1719ZM88.4453 13.8047H88.9883C89.3294 13.7995 89.5977 13.7096 89.793 13.5352C89.9883 13.3607 90.0859 13.125 90.0859 12.8281C90.0859 12.1615 89.7539 11.8281 89.0898 11.8281C88.7773 11.8281 88.5273 11.918 88.3398 12.0977C88.1549 12.2747 88.0625 12.5104 88.0625 12.8047H87.3398C87.3398 12.3542 87.5039 11.9805 87.832 11.6836C88.1628 11.3841 88.582 11.2344 89.0898 11.2344C89.6263 11.2344 90.0469 11.3763 90.3516 11.6602C90.6562 11.944 90.8086 12.3385 90.8086 12.8438C90.8086 13.0911 90.7279 13.3307 90.5664 13.5625C90.4076 13.7943 90.1901 13.9674 89.9141 14.082C90.2266 14.181 90.4674 14.3451 90.6367 14.5742C90.8086 14.8034 90.8945 15.0833 90.8945 15.4141C90.8945 15.9245 90.7279 16.3294 90.3945 16.6289C90.0612 16.9284 89.6276 17.0781 89.0938 17.0781C88.5599 17.0781 88.125 16.9336 87.7891 16.6445C87.4557 16.3555 87.2891 15.974 87.2891 15.5H88.0156C88.0156 15.7995 88.1133 16.0391 88.3086 16.2188C88.5039 16.3984 88.7656 16.4883 89.0938 16.4883C89.4427 16.4883 89.7096 16.3971 89.8945 16.2148C90.0794 16.0326 90.1719 15.7708 90.1719 15.4297C90.1719 15.099 90.0703 14.8451 89.8672 14.668C89.6641 14.4909 89.3711 14.3997 88.9883 14.3945H88.4453V13.8047ZM95.4531 14.5742C95.4531 15.4206 95.3086 16.0495 95.0195 16.4609C94.7305 16.8724 94.2786 17.0781 93.6641 17.0781C93.0573 17.0781 92.6081 16.8776 92.3164 16.4766C92.0247 16.0729 91.8737 15.4714 91.8633 14.6719V13.707C91.8633 12.8711 92.0078 12.25 92.2969 11.8438C92.5859 11.4375 93.0391 11.2344 93.6562 11.2344C94.2682 11.2344 94.7188 11.431 95.0078 11.8242C95.2969 12.2148 95.4453 12.819 95.4531 13.6367V14.5742ZM94.7305 13.5859C94.7305 12.974 94.6445 12.5286 94.4727 12.25C94.3008 11.9688 94.0286 11.8281 93.6562 11.8281C93.2865 11.8281 93.0169 11.9674 92.8477 12.2461C92.6784 12.5247 92.5911 12.9531 92.5859 13.5312V14.6875C92.5859 15.3021 92.6745 15.7565 92.8516 16.0508C93.0312 16.3424 93.3021 16.4883 93.6641 16.4883C94.0208 16.4883 94.2852 16.3503 94.457 16.0742C94.6315 15.7982 94.7227 15.3633 94.7305 14.7695V13.5859ZM101.691 15.5156H99.3086L98.7734 17H98L100.172 11.3125H100.828L103.004 17H102.234L101.691 15.5156ZM99.5352 14.8984H101.469L100.5 12.2383L99.5352 14.8984ZM104.738 11.3125L106.598 15.9531L108.457 11.3125H109.43V17H108.68V14.7852L108.75 12.3945L106.883 17H106.309L104.445 12.4062L104.52 14.7852V17H103.77V11.3125H104.738Z" fill="#525252"/>
<path d="M52.6145 14.1148C53.0959 11.1482 51.0814 8.35311 48.1149 7.87166C45.1483 7.39021 42.3532 9.40477 41.8717 12.3713C41.3903 15.3378 43.4048 18.133 46.3714 18.6144C49.3379 19.0959 52.133 17.0813 52.6145 14.1148Z" fill="#FFD05D"/>
<path d="M50.0895 8.59937C50.6315 9.44522 50.9456 10.4513 50.9456 11.5302C50.9456 14.535 48.5095 16.9718 45.504 16.9718C44.4603 16.9718 43.4855 16.6775 42.6575 16.168C43.6246 17.6778 45.317 18.6782 47.243 18.6782C50.2478 18.6782 52.6845 16.2421 52.6845 13.2366C52.6839 11.2755 51.6459 9.55694 50.0895 8.59937Z" fill="#FDC453"/>
<path d="M42.5406 13.8176C42.5406 11.0272 44.8023 8.76539 47.5927 8.76539C49.2238 8.76539 50.6736 9.53847 51.5973 10.738C50.7253 9.22311 49.0897 8.20361 47.2167 8.20361C44.4263 8.20361 42.1646 10.4654 42.1646 13.2558C42.1646 14.4151 42.5552 15.4831 43.2121 16.3353C42.7851 15.5942 42.5406 14.7343 42.5406 13.8176Z" fill="#FFD77F"/>
<path d="M44.9301 14.3569C45.0609 15.5182 46.0466 16.4215 47.2429 16.4215C48.4392 16.4215 49.4243 15.5188 49.5558 14.3569H44.9301Z" fill="#695342"/>
<path d="M45.645 15.7855C46.0619 16.1794 46.6237 16.4213 47.2423 16.4213C47.8347 16.4213 48.3747 16.1998 48.7852 15.8359L48.7642 15.7862C47.211 15.0284 45.6661 15.7747 45.645 15.7855Z" fill="#F06669"/>
<path d="M46.4922 11.6609C46.4922 11.6584 46.4922 11.6558 46.4922 11.6526C46.4922 11.1502 46.1289 10.6899 45.5825 10.6899C45.1484 10.6899 44.8962 11.0021 44.8107 11.2939C44.7245 11.0015 44.4729 10.6899 44.0388 10.6899C43.4924 10.6899 43.1292 11.1502 43.1292 11.6526C43.1292 11.6552 43.1292 11.6577 43.1292 11.6609C43.126 11.7701 43.1292 12.8828 44.81 13.7893C46.4928 12.8828 46.4953 11.7701 46.4922 11.6609Z" fill="#E62728"/>
<path d="M51.356 11.6609C51.356 11.6584 51.356 11.6558 51.356 11.6526C51.356 11.1502 50.9928 10.6899 50.4463 10.6899C50.0122 10.6899 49.7601 11.0021 49.6745 11.2939C49.5884 11.0015 49.3368 10.6899 48.9027 10.6899C48.3563 10.6899 47.993 11.1502 47.993 11.6526C47.993 11.6552 47.993 11.6577 47.993 11.6609C47.9899 11.7701 47.993 12.8828 49.6739 13.7893C51.356 12.8828 51.3592 11.7701 51.356 11.6609Z" fill="#E62728"/>
</svg>
