<svg width="76" height="76" viewBox="0 0 76 76" fill="none" xmlns="http://www.w3.org/2000/svg">
<g opacity="0.5">
<path opacity="0.5" d="M61.2701 63.1499L51.1001 57.4399L46.0601 58.8499L56.2301 64.5599L61.2701 63.1499Z" fill="#7BDAFF"/>
<path opacity="0.5" d="M58.8398 31.4099L60.3098 36.6599L70.4898 42.3699L69.0098 37.1199L58.8398 31.4099Z" fill="#7BDAFF"/>
<path opacity="0.5" d="M5.32992 35.9899L15.4999 41.6999L14.0899 36.6599L3.91992 30.9399L5.32992 35.9899Z" fill="#7BDAFF"/>
<path opacity="0.5" d="M62.1401 43.1599L65.0501 53.5199L57.6001 55.6099L67.7701 61.3199L75.2201 59.2299L72.3101 48.8699L62.1401 43.1599Z" fill="#7BDAFF"/>
<path opacity="0.5" d="M12.26 30.16L10.17 22.71L44.04 13.2L33.86 7.48999L0 17L2.09 24.45L12.26 30.16Z" fill="#7BDAFF"/>
<path opacity="0.5" d="M36.1901 61.6299L22.2001 65.5499L18.2801 51.5699L8.1001 45.8599L16.4901 75.7299L46.3601 67.3399L36.1901 61.6299Z" fill="#7BDAFF"/>
<path opacity="0.5" d="M40.3599 5.66L50.5299 11.37L53.7099 13.16L63.8799 18.87L58.7299 0.5L40.3599 5.66Z" fill="#7BDAFF"/>
<path opacity="0.5" d="M55.54 19.6599L57.01 24.9099L67.18 30.6199L65.71 25.3699L55.54 19.6599Z" fill="#7BDAFF"/>
</g>
</svg>
