<svg width="970" height="819" viewBox="0 0 970 819" fill="none" xmlns="http://www.w3.org/2000/svg">
<path d="M424.625 253.96C427.908 246.604 432.418 237.804 438.153 227.515C443.889 217.27 449.23 206.631 454.134 195.555C459.037 184.478 462.934 173.007 465.823 161.142C468.669 149.277 469.72 137.981 468.888 127.342C511.488 119.155 554.963 111.362 599.227 103.963C643.49 96.6074 685.477 90.6531 725.275 86.1435C765.029 81.634 801.28 79.1822 834.073 78.7444C866.866 78.3503 893.091 80.5832 912.749 85.5306C915.201 86.3624 918.047 87.1943 921.33 87.9824C927.898 89.6461 933.195 90.4342 937.311 90.4342C943.878 92.0979 950.226 91.4849 956.356 88.5953C962.529 85.7495 966.382 81.021 968.046 74.4538C969.665 69.5502 970.278 63.8148 969.884 57.2475C969.447 50.6802 965.988 44.1567 959.42 37.5894C952.853 31.0221 942.214 25.1115 927.46 19.7702C912.705 14.4725 891.821 10.1381 864.764 6.85449C805.746 -0.500868 743.444 -1.94567 677.859 2.56386C612.274 7.0734 549.359 13.8596 489.115 22.8349C428.871 31.854 374.144 41.486 324.977 51.7309C275.81 61.9321 237.282 69.1124 209.436 73.1841C180.716 77.2996 154.928 79.7514 131.986 80.5394C109.045 81.3713 89.3427 79.7514 72.9683 75.6359C63.1173 73.1841 54.5361 72.1771 47.137 72.5711C39.7816 73.0089 34.0024 74.0159 29.9307 75.6359C25.0271 78.0877 20.9116 80.5394 17.628 82.9912C8.60888 91.1784 3.26748 99.5846 1.64755 108.21C-0.0161583 116.835 -0.410195 124.453 0.421661 130.976C1.20974 139.995 3.7053 148.182 7.77702 155.582C19.2479 176.903 42.6274 190.432 77.8719 196.167C113.116 201.903 165.961 196.167 236.494 178.961C268.454 171.606 306.589 162.981 350.852 153.13C345.948 159.697 341.833 165.651 338.549 170.949C335.266 176.29 332.814 180.581 331.194 183.865C310.704 219.941 291.221 257.024 272.789 295.158C254.357 333.292 238.157 372.609 224.235 413.194C210.268 453.78 199.235 494.935 191.048 536.747C182.861 578.559 178.745 620.37 178.745 662.182C178.745 672.033 178.921 684.511 179.358 699.703C179.752 714.895 181.372 730.263 184.262 745.805C187.108 761.392 191.442 775.533 197.178 788.23C202.913 800.927 211.494 809.771 223.009 814.674C231.196 818.746 237.763 819.184 242.667 815.9C247.571 812.617 251.467 807.932 254.357 801.759C257.203 795.629 259.26 788.668 260.486 780.875C261.712 773.082 262.325 766.733 262.325 761.83C263.945 709.379 270.95 657.103 283.209 605.047C295.512 552.99 311.492 501.984 331.15 451.985C344.241 417.573 358.995 384.167 375.414 351.768C391.832 319.326 408.206 286.752 424.625 253.96Z" fill="#F2395B"/>
</svg>
