<svg width="757" height="819" viewBox="0 0 757 819" fill="none" xmlns="http://www.w3.org/2000/svg">
<path d="M211.625 253.96C214.908 246.604 219.418 237.804 225.153 227.515C230.889 217.27 236.23 206.631 241.134 195.555C246.037 184.478 249.934 173.007 252.823 161.142C255.669 149.277 256.72 137.981 255.888 127.342C298.488 119.155 341.963 111.362 386.227 103.963C430.49 96.6074 472.477 90.6531 512.275 86.1435C552.029 81.634 588.28 79.1822 621.073 78.7444C653.866 78.3503 680.091 80.5832 699.749 85.5306C702.201 86.3624 705.047 87.1943 708.33 87.9824C714.898 89.6461 720.195 90.4342 724.311 90.4342C730.878 92.0979 737.226 91.4849 743.356 88.5953C749.529 85.7495 753.382 81.021 755.046 74.4538C756.665 69.5502 757.278 63.8148 756.884 57.2475C756.447 50.6802 752.988 44.1567 746.42 37.5894C739.853 31.0221 729.214 25.1115 714.46 19.7702C699.705 14.4725 678.821 10.1381 651.764 6.85449C592.746 -0.500868 530.444 -1.94567 464.859 2.56386C399.274 7.0734 336.359 13.8596 276.115 22.8349C215.871 31.854 161.144 41.486 111.977 51.7309C62.8098 61.9321 24.2818 69.1124 -3.56352 73.1841C-32.2844 77.2996 -58.072 79.7514 -81.0137 80.5394C-103.955 81.3713 -123.657 79.7514 -140.032 75.6359C-149.883 73.1841 -158.464 72.1771 -165.863 72.5711C-173.218 73.0089 -178.998 74.0159 -183.069 75.6359C-187.973 78.0877 -192.088 80.5394 -195.372 82.9912C-204.391 91.1784 -209.733 99.5846 -211.352 108.21C-213.016 116.835 -213.41 124.453 -212.578 130.976C-211.79 139.995 -209.295 148.182 -205.223 155.582C-193.752 176.903 -170.373 190.432 -135.128 196.167C-99.8837 201.903 -47.039 196.167 23.4937 178.961C55.4545 171.606 93.5885 162.981 137.852 153.13C132.948 159.697 128.833 165.651 125.549 170.949C122.266 176.29 119.814 180.581 118.194 183.865C97.704 219.941 78.2211 257.024 59.7889 295.158C41.3567 333.292 25.1574 372.609 11.2348 413.194C-2.73166 453.78 -13.7647 494.935 -21.9519 536.747C-30.1391 578.559 -34.2546 620.37 -34.2546 662.182C-34.2546 672.033 -34.0795 684.511 -33.6417 699.703C-33.2476 714.895 -31.6277 730.263 -28.7381 745.805C-25.8923 761.392 -21.5579 775.533 -15.8224 788.23C-10.087 800.927 -1.50577 809.771 10.0089 814.674C18.1961 818.746 24.7634 819.184 29.6669 815.9C34.5705 812.617 38.4671 807.932 41.3567 801.759C44.2025 795.629 46.2603 788.668 47.4862 780.875C48.7121 773.082 49.325 766.733 49.325 761.83C50.9449 709.379 57.95 657.103 70.209 605.047C82.5117 552.99 98.4921 501.984 118.15 451.985C131.241 417.573 145.995 384.167 162.414 351.768C178.832 319.326 195.206 286.752 211.625 253.96Z" fill="black"/>
</svg>
