<svg width="58" height="59" viewBox="0 0 58 59" fill="none" xmlns="http://www.w3.org/2000/svg">
<circle cx="29" cy="29.5981" r="29" fill="#7FDC68"/>
<path d="M30.8611 22.5981H19.7056C18.212 22.5998 17.0017 23.8102 17 25.3038V34.2837C17.0017 35.7773 18.212 36.9876 19.7056 36.9893H30.8611C32.3547 36.9876 33.565 35.7773 33.5667 34.2837V25.3038C33.565 23.8102 32.3547 22.5998 30.8611 22.5981Z" fill="white"/>
<path d="M41.7271 24.0067C41.5584 23.9103 41.3511 23.912 41.1837 24.0107L35.2008 27.5433C35.036 27.6407 34.9349 27.8178 34.9349 28.0094V31.2726C34.9349 31.4398 35.0121 31.5977 35.1442 31.7002L41.127 36.345C41.2902 36.4716 41.5113 36.4945 41.6969 36.4036C41.8825 36.3127 42 36.1241 42 35.9176V24.4766C42 24.2824 41.8958 24.1031 41.7271 24.0067Z" fill="white"/>
</svg>
